<mxfile host="app.diagrams.net" agent="Mozilla/5.0 (Windows NT 10.0; Win64; x64; rv:137.0) Gecko/20100101 Firefox/137.0" version="26.2.14">
  <diagram name="Page-1" id="VkQgt5TZSKFPUw39kpo-">
    <mxGraphModel grid="1" page="1" gridSize="10" guides="1" tooltips="1" connect="1" arrows="1" fold="1" pageScale="1" pageWidth="827" pageHeight="1169" math="0" shadow="0">
      <root>
        <mxCell id="0" />
        <mxCell id="1" parent="0" />
        <mxCell id="IZ3la_lI0R4nUm2AgaYm-6" value="" style="rounded=1;whiteSpace=wrap;html=1;arcSize=4;" vertex="1" parent="1">
          <mxGeometry x="70" y="190" width="1010" height="340" as="geometry" />
        </mxCell>
        <mxCell id="IZ3la_lI0R4nUm2AgaYm-4" value="" style="shape=image;verticalLabelPosition=bottom;labelBackgroundColor=default;verticalAlign=top;aspect=fixed;imageAspect=0;image=data:image/png,iVBORw0KGgoAAAANSUhEUgAAAysAAAFqCAYAAAAazMW8AAAABmJLR0QA/wD/AP+gvaeTAAAgAElEQVR4nOzdeVhTV/4/8HfYQkJCghjCqiKLtIioaGVUBhRUrAuKRbtoa/tYu01b69fWdrrvtfVbx+kyVjttp/O1rdNWrHsVSm3ZXKigYkEUFZAtbCEhEEhyfn/4yx1iWC1wA3xez5OH5OTk3s+9J8D93HvuOQLGGAMhhBBCCCGE2Bg7vgMghBBCCCGEkI5QskIIIYQQQgixSZSsEEIIIYQQQmySA98BEEIIIYQMRq2trWhqarIq12q1aGtr69EyXF1dYW9vb1FmZ2cHmUzWJzESMthRskIIIYSQIYUxhoaGBu6hVqstfra0tECj0cBgMKChoQFGoxFqtRptbW3QarVoaWlBc3Mzmpqa0NraisbGRhiNRtTX1/O2Tc7OzhCJRJBIJHB0dIRMJoO9vT3kcjkcHBwglUohFAohFoshFoshFAohlUrh4OAANzc3yOVyyGQyq58ikYi3bSKkJwQ0GhghhBBCbFVjYyMqKytRXV0NlUpl8fzGJEStVnOPjojFYsjlcjg7O3NXNNzc3LgrGY6OjpBIJFxicONBv1wuh0Ag4JbX2RUQ8+e7Y06qbqTX66HT6SzKdDod9Ho9l2Sp1WoYjUY0NDTAYDBAo9FwV3qam5vR0tLCXeGpr6+HWq2GyWSyWpeTk5NVAmNObuRyOTw9PaFQKODh4QEvLy8oFAooFAo4OND5bjIwKFkhhBBCyIBqa2vDtWvXUFZWhqtXr6K6uhpVVVWoqqqCSqVCdXU1KisroVKp0NLSYvFZd3d3eHh4QKFQWBxkm5+3f92+XC6Xw9HRkacttg2NjY0dJng3/qyvr0dDQwPq6uq4NtHr9RbLGjlyJNcOnp6e3HOlUglvb2+MHj0avr6+cHNz42lryVBByQohhBBC+lRlZSVKS0u5R0lJCUpLS7nkpLKykjvL7+jo2OGZ+xufmw+Gh3vCwZeGhgaLZLKiogIqlQoqlcrqeWNjI/c5iUSCUaNGYdSoUfD19YWfnx+XyPj5+WHUqFFwdnbmccuIraNkhRBCCCG9YjQacfXqVRQVFaGoqAgXLlxAUVERLl68iNLSUu4svEAggKenJ/z8/Do9UPX09ISdHQ1OOpQ0NTXh6tWrXLJqTlLNz0tKStDc3MzV9/DwwJgxYxAUFITg4GAEBQVxDxpogFCyQgghhJAOlZSUcAlJ+8Tk8uXLaG1tBXC9O1D7g8xRo0ZxCYmvry+cnJx43gpii1QqFcrKylBaWoqrV6/i8uXLXNJ7+fJlbjQ1Dw8P7vsVGBjIJTHBwcEQi8U8bwUZCJSsEEIIIcNcY2MjioqKkJ+fj5ycHJw/fx65ubmoqakBAMjlcgQEBGDs2LEWj/Hjx8PT05Pn6MlQYzAYUFJSguLiYotHfn4+Lly4AIPBAADw8vJCREQEQkNDceuttyIiIgK33HILXakbYihZIYQQQoYJg8GAoqIinD17Fnl5eTh79izOnj2LK1euALielEyYMAFhYWGYMGECxo8fj+DgYIwcOZLfwAn5/1pbW3H58mWcP3+e+/7m5eXh0qVLMJlMkEgkCA0NxYQJEyy+y3Sj/+BFyQohhBAyRFVUVODUqVPIyclBRkYGMjMzodPp4ODggFGjRnFno81npm+99VaLoXkJGSxaW1tRVFTEXRnMz8/HyZMnUVVVBeC/V2FmzpyJGTNmYMqUKXRj/yBByQohhBAyBOh0Ovz22284fvw4srKycPz4cZSVlcHe3h6hoaGYNm0aIiMjMWnSJISGhtK9JGRYuHbtGs6cOYMTJ07g+PHjOH78OOrq6uDs7IxJkyZh2rRp3O/GmDFj+A6XdICSFUIIIWQQ0mg0OHbsGFJTU/HLL7/gzJkzMBgMUCqViIyM5A7ApkyZAqlUyne4hNgExhguXLjAJS7Z2dnc746npyciIyMxe/ZsxMbG4tZbb+U7XAJKVmxaY2Mjmpub0dTUBLVajebmZuh0OjQ0NKC5udli2L8bZ6Y1mUxQq9VWfTTNs/OaSSQSiEQiSKVSSKVSiEQiSCQSuLq6QiQSwcXFpf83lBBCSLf0ej2ys7ORmpqK1NRUnDhxAkajEWFhYZg1axYiIyPp7DAhN0Gn0yEnJwfHjx9Heno6fv75Z6jVanh5eSE2NpZ7+Pn58R3qsETJygDS6XQoKSlBeXk5ysrKuNl56+rqUFtba/UwGo2dLksoFFoM2SeRSKwmypJKpdBoNBZlLS0tFkmORqPhRtXoiJOTE9zd3a0eCoUC7u7u3Pj5Pj4+8PHxgVAo7O1uIYQQ0gHGGE6fPo2UlBSkpqYiPT0dOp0OY8eO5Q6eZs2aBQ8PD75DJWRIMRqNOHXqFHdiIDMzEy0tLQgODrZIXuRyOd+hDguUrPQhrVaLixcv4tKlS9xP8+RH165dQ0NDA1fX2dkZSqUSCoUCI0eO7DAhGDFiBEQiEcRiMWQymcXzvhyWr62tDVqtFhqNBs3NzdBqtWhsbERLS0uHiZRKpUJtbS1qampQVVXFjYUOAEqlEt7e3vD19cWoUaMQEBCAwMBABAYGYuzYsZTMEEJIF0wmEzIzM7F//358//33uHjxIhQKBWJiYhAXF4e4uDiMHTuW7zAJGVaam5u5QSpSUlJw7NgxmEwmREZGIikpCUlJSfD29uY7zCGLkpWbUF1djTNnziAvLw/5+fncrL2VlZUAADs7O/j5+SEwMJCbodfb2xs+Pj7w8/ODt7c3FAoFz1vRN0wmE6qqqlBWVoby8nIuMbt27Ro3u3FH+yUoKIgbUjAsLIxmqCWEDFt6vR6pqalITk7GDz/8AJVKhdDQUCxduhSJiYmYOHEijdBFiA2pr6/HgQMHkJycjMOHD6OlpQXTp09HYmIili5dSl0x+xglK90oKirC8ePHkZubizNnzuDMmTPcMHhKpRITJkxAUFAQd/UgKCgI/v7+dAWhHfMVJ/Pj0qVLKCgowNmzZ6FWqwEAY8aM4ZKXiIgITJs2jc5SEEKGLIPBgAMHDmDXrl04cOAANBoNpkyZgsTERCQmJiI4OJjvEAkhPaDT6fDjjz8iOTkZ+/btQ0NDAyZPnozExESsWrUKo0aN4jvEQY+SlXYaGxtx4sQJZGdnIzs7G8ePH0dNTQ2EQiE3wZB5cqEJEyZQP+E+cOXKFZw9exbnzp3jJigrLCyE0WiEn58f/vSnP3Gj2kyePJnGRCeEDGqXLl3CP//5T3zxxReoqqpCVFQUdzaWbt4lZHBra2tDWloadu/ejeTkZNTU1GDevHlYs2YNFi1aZHVvMemZYZ2sGAwG5OXlISUlheuD2NbWRhMH8Uyr1SI3N5frH3rs2DFUV1fDwcEB4eHhXL/tmJgYODg48B0uIYR0Sa/XY+/evdi+fTtSU1Ph6emJe++9F2vXrqX7T9qRSCRoamqyKhcIBHB3d8eMGTPw/PPPY+rUqTxEx489e/Zg6dKl3Ovm5mY6HhkkjEYj0tLSsH37diQnJ0MqlSIpKQmPP/44xo8fz3d4g8qwS1auXr2KPXv24Mcff8Qvv/yCpqYmBAQEcAfAM2bMgJeXF99hkhtcvHgR6enpXGJZVVUFd3d3zJ49G/Hx8Vi8eDFGjhzJd5iEEMK5fPkyPvjgA3z55ZdQq9VYsGAB1qxZg/nz58Pe3p7v8GxSbm4uJk2ahISEBOzZswfA9aH5f/rpJzz88MOor6/HwYMHERcXx3OkA2vJkiX44YcfKFkZpEpKSvDZZ5/hs88+Q1lZGaKjo/HII49g2bJl9LegB4ZFslJYWIjdu3fj+++/R05ODuRyOeLi4jBnzhzMmTMH/v7+fIdIeoExhrNnzyIlJQVHjx7Fzz//jLa2NsTExCAxMRFLliyh+10IIbzJzc3Fu+++i2+//Ra+vr5Yu3YtVq9eTSfCeqCjZMVs586dWLlyJUJDQ3Hu3DmeIuwfEokEEydORHp6eofvU7IyNBiNRvz444/49NNPsXfvXowZMwYbNmzA6tWrqV270Hfj39oYlUqFzZs3IywsDCEhIdiyZQsmT56MQ4cOoaqqCt9++y3Wrl1LicogJBAIMGHCBKxfvx6HDh2CSqXCzp074e7ujo0bN8LPzw9RUVH4/PPPO+xSQAgh/eHcuXNISEjApEmTcP78efzrX/9CUVERnnvuOUpU+sCsWbMAAPn5+RZTARAyWNjb2+P222/H7t27UVBQgNjYWKxbtw5jx47Fxx9/bDEVBPmvIZWsmEwmHD16FMuXL4evry/efPNNREVF4eeff0ZFRQW2b9+O+Ph4ODk58R0q6UMSiQQrVqzArl27UF1djd27d8PHxwePPPIIvL298cgjjyAnJ4fvMAkhQ1RpaSlWr16N8PBwlJaWYv/+/Th9+jTuvvtuuq+uD7XvCEJDOZPBLjAwEJ988gmuXLmC5cuXY/369QgJCcFXX32FYdDpqVeGRLLS2tqKTz/9FOPGjcPcuXNRUVGBHTt24Nq1a/j4448RHR1NfQKHCZFIhISEBHzzzTcoKyvDyy+/jGPHjmHKlCmIjIzE3r176Y8AIaRPtLa24p133sEtt9yCjIwM7Ny5E6dOncKCBQvoYLof/PzzzwCA0NBQyGQy7NmzBwKBgHsUFhZi+fLlcHd358pqamoAALW1tVi/fj0CAgLg5OQENzc3zJ8/H2lpadzyb1ze1atXsWLFCkilUri7u2PVqlWor6/HlStXsGjRIkilUnh5eeHBBx+ERqOxilelUuGJJ57AmDFj4OTkBIVCgcTEROTm5nJ1Nm/eDIFAgKamJmRkZHDr7izJraysxIoVKyCXy+Hu7o6FCxfi0qVLN7XuN954g1vfzJkzufLDhw9z5TfeC6rX6/HSSy8hJCQEYrEYI0aMwKJFi7B3714YjcYetCK5kaenJ/72t7+hsLAQf/7zn7Fq1SrExMQMua6OfwgbxHQ6Hfv73//O/Pz8mFAoZGvXrmXnz5/nOyxig3755Re2ePFiJhAIWHh4ONu1axczGo18h0UIGaSOHz/OQkJCmFgsZm+88QZraWnhO6Qh4fTp0wwAS0hI4MrUajXbvXs38/DwYI6Ojuzo0aMWn0lISGAAWHR0NEtLS2NNTU0sOzub2dvbM5VKxSoqKpi/vz9TKpVs3759TK1Ws8LCQpaYmMgEAgHbsWNHh8tLTExkp06dYlqtln355ZcMAJs/fz5LSEhgp0+fZhqNhm3bto0BYE899ZTFMsrLy9no0aOZUqlkBw4cYBqNhp07d45FR0czZ2dnlpmZaVHfxcWFzZgxo9P9Yo4pISGBZWZmMq1Wy1JTU5mrqyubOnVqv6w7IiKCubu7W5StWbOGyWQyduTIEabT6VhlZSXbsGEDA8DS0tI6jZ/03MmTJ9nUqVOZo6Mje+6555her+c7JN4N2mRl586dzMvLi4nFYvbkk0+y0tJSvkMig0BeXh5bsWIFs7OzY2FhYeyXX37hOyRCyCBiMBjY66+/zhwdHdncuXPZlStX+A5pSDEnK+0fAoGAubu7s8WLF7MTJ05YfcZ8IH/w4MEOl7l69WoGgH399dcW5S0tLczb25uJRCJWWVlptbwDBw5Y1A8NDWUA2LFjxyzK/f392bhx4yzK7rvvPgaA7dy506K8oqKCCYVCFhERYVHe02Rl3759FuV33303A8BUKlWfr7ujZMXf359Nnz7dqm5wcDAlK33IaDSyjz/+mLm4uLCIiAj2+++/8x0SrwZdN7DCwkLExcVh1apVWLx4MS5fvoy//e1v8PX15Ts0MghMmDAB33zzDc6fPw8/Pz9ER0dj9erVUKlUfIdGCLFxGo0GS5YswZtvvonXX38dhw4dwujRo/kOa0hKSEgAu35CFSaTCTU1Nfjhhx+6nGPltttu67A8OTkZALBgwQKLcqFQiNjYWDQ3N+PHH3+0+tyUKVMsXptHmbyx3MfHB+Xl5RZle/bsgZ2dHRYuXGhR7unpidDQUOTk5KCsrKzTbenMjdvv4+MDABbr7691A0B8fDwyMzOxdu1aZGdnc12/CgsLERMTc1PLJNbs7OzwyCOP4OzZs3B2dsaUKVOsRscbTgZVsvL+++8jPDwcdXV1yMzMxLZt22gWeXJTxo0bhwMHDuC7777DTz/9hJCQEOzdu5fvsAghNury5cuYNm0aTp8+jfT0dGzcuBF2doPqX+iQ5+LiYlWm1+uhVqvh7OwMqVRq9b5SqQRw/V6QG7m6ulq8trOzg729PcRisUW5vb09TCaT1TpNJhNkMpnFfTACgQC//fYbAKCoqKjX2yiTyaxiAsCtvz/XDQAfffQRvvzySxQXFyM2Nhaurq6Ij4/nEkLSt/z9/ZGWloaVK1di2bJl2Lx5M98h8WJQ/KVtbm7GypUr8cwzz+CVV17ByZMnMW3atD5fT1lZmdUvtkAgsMpmX3jhBas6BQUFN71e8w12AoGArhANsMTERPz+++9YtmwZlixZgldffZVuwCeEWCgpKcGsWbPg7OyMEydOICIigu+QSA8JhULIZDK0tLR0eBN8VVUVgOtXHfpynXK5HA4ODmhra+OuEN34MA/FDPTd6GY3s247Ozu0trZaLauj4aEFAgFWrVqFlJQUNDQ0YM+ePWCMITExEe+//36fbAOx5OjoiG3btuF///d/8cwzz+Ctt97iO6QBZ/PJSlVVFWbOnInDhw/j0KFDePbZZ/ttZC9fX18wxvD1118DADZu3AjGGJYsWWJR74033gBjDNHR0dixYwcYYwgJCenROrRaLYKCgiwuz27YsAGMMYSHh/eoPulbLi4u2L59O7Zt24a33noLy5Ytg16v5zssQogNqKmpQWxsLORyOVJSUmjC2UFo6dKlAIADBw5YlOv1eqSmpkIkEmHevHl9us7ExEQYDAZkZGRYvbdp0yaMGjUKBoOBKxOLxRYJw7hx47B9+/YBWbeXlxeuXbtmUa+yshIlJSVWn5fL5dzJWUdHR8yZM4cbRe3G/Uv61rp16/DRRx/hhRdewIcffsh3OAPKppOVuro6xMXFQavV4sSJE5gzZw7fIfWIRCKxGAawPXP/2/aXjLvS2/p/VFexD3Vr167FTz/9hLS0NCQlJVn8MSeEDD+MMdx7771oa2vDkSNHMGLECL5DIjfh7bffhr+/P9atW4f9+/dDo9HgwoULuPvuu1FRUYGtW7dy3cH6cp0BAQF44IEHcOjQIajVatTV1eGTTz7Ba6+9hs2bN1sMTzx58mRcuHABpaWlyMrKQnFxMaKiogZk3XPnzkV5eTk+/PBDaLVaXLp0CU8++WSn3ewffvhhnDlzBnq9HtXV1Xj33XfBGMPs2bNvKl7Sc4888gjeeOMNrF+/HtnZ2XyHM3AG7Fb+XjIajWz+/PnMz89vwEf6+vrrrxkAtnHjxi7rRUdHWw15yFj3o3p0Jjw8nPn4+PT6c33pZmMfSrKysphIJGLPPPMM36EQQnj0wQcfMEdHR5aVlcV3KMOCi4uL1UhgN46y1V5WVpZV/c4Oa2pqati6deuYv78/c3R0ZDKZjM2bN4+lpqZ2ubznn3+enTx50qr87bffZr/++qtV+csvv8wtr7a2lq1fv56NHTuWOTo6MoVCwebOnWs19DJjjBUUFLCoqCjm4uLC/Pz82EcffdRlTIwxq/IFCxbc1LobGhrYmjVrmJeXFxOJRGzmzJns5MmTLCIiglu2+XgoNzeXPfTQQ+yWW25hYrGYjRgxgkVGRrIdO3Ywk8nUReuSvmIymdjtt9/O/P39WXNzM9/hDAgBY7bZQf+TTz7B448/jvT09E5H+Ogv33zzDe666y5s3LgR77zzTqf1YmJisHLlSqxZs8aiXCKRYOLEiUhPT+/VeidOnIiampqbHqWjL9xs7EPNF198gQceeADp6emYPn063+EQQgaYRqNBYGAgVq9ejU2bNvEdDiGEcCoqKhAYGIjXXnsN//M//8N3OP3OJruBNTc344UXXsCTTz454InKH9HdTLQ3zo7b0tLS5fK6qt/TWWQNBgN27dqFOXPmwNPTEyKRCGFhYdi6datF17KezqLbH7Pi9mYW4oGyevVqzJkzB08//fSArpcQYhs+++wz6PV6bNy4ke9QCCHEgpeXF5544gm89957Fsd8Qxbfl3Y68q9//YsJhUJWVVXFy/r7uxuYeXKnGy/fddYNrKP6PZ1Fdt++fQwAe+utt1hdXR1TqVTs73//O7Ozs2MbNmzoVez9OStu++3sbBbigWa+xH/69OkBXzchhF8zZ85k9913H99hEEJIh4qKijqcpHQosskrK0eOHEF0dDTNodKF1NRUhIaGYs6cORCJRFAqlXjvvfcQHBxsVTcmJgbPPfcc3NzcMHLkSDz++OO4++67sXXrVjQ2NvZ4nc899xyuXr2K999/H7fffjskEglCQ0PxzTffgDGGxx9/vE+2bePGjYiJiYFYLMa0adNgMBgsrsQMlBkzZsDLywtHjhwZ8HUTQvjT1taGrKwsxMfH8x0KIYR0KDAwEAEBAfj555/5DqXf2WSyUlRUhAkTJvC2fvPQyN1dWjMajf02jHJ3ejqL7MKFC5GWlmb1+fDwcLS1tSE/P7/H6+zPWXHbs5WufwKBAGFhYTc9eRYhZHCqqKiA0WiEv78/36EQQkinxo4dy+t9zgPFJpOVtrY2ODo68rZ+iUQCAN1edWhoaLCa4Xag9HQWWbVajZdeeglhYWFwc3Pj7gEx34uh0+l6tL7+nhW3vY5mIeaLk5MTzblCyDBj/p13cnLiORJCCOmcUCjs9v7nocAmkxVvb29cuXKFt/Wbu1J1ddVBr9fj4sWLCAoKsnqvr2ai7UpPZ5FdtGgRXn/9dTz44IO4cOECTCYTGGPYsmULAFjN1t5Z7P09K66tunz5Mnx9ffkOgxAygMwTP5aXl/McycC4evUqFi9ejMbGRmi1WquTUVlZWd0u4+mnn7b4zBtvvDEAkdu2kydPYvXq1fD394dIJMKIESMwfvx4LFu2DP/4xz9w6dKlXi/TPBiOQCCw+N/UWflw8uyzz2LXrl18hzGgrl27Bh8fH77D6Hc2maxERUUhNTW1wwPdgRAQEICQkBBkZ2d3eqXgP//5DxQKBcaPH2/1Xl/ORNuZnswiazQakZGRAU9PTzzxxBNQKBRcMtLc3NzhcruKvT9nxbVFV69exfnz5296Yi5CyODk4uKCwMBA/Prrr3yH0u9yc3MxZcoUzJ07F66urpBIJGCM4fTp01yd119/vctl1NbWYtu2bQCAe+65B4wxvPDCC/0ad2e0Wi2CgoKsuisPJJPJhKeffhrTp0+Hh4cHDh06hIaGBvz+++/YsmULGhsb8eijjyIwMLDXkw9v2LABjDGEh4f3qJwvfLTDgw8+iOeeew4vvvjigK2TT/X19Th37hwmTpzIdyj9ziaTlXvuuQf19fX46quveIthy5YtsLOzw/z587F7927U1dXBaDSivLwcH3/8Mf7yl7/g/fffh52d9S7sy5lou9LdLLL29vaIiYlBZWUl3nvvPdTU1KC5uRlpaWncP5bexN7fs+Lamr/97W/w8fFBXFwc36EQQgbY0qVL8d133w3pYUEbGxuxaNEiLFu2DH/5y1+s3heJRBg9ejQOHTqEU6dOdbqcLVu2wM/Pr09ikkgkFkPe9xZjDCaTyWJo/oH24osvYvPmzfj444/x7rvvIiQkBEKhEEqlEnPmzMHhw4cxf/583uLrK121FR/tEBAQgOTkZLz55pv4z3/+M2Dr5cv333/PHacOeQM+/lgPPfzww8zT05PV1tbyFkNOTg5buXIlGzNmDBMKhczJyYn5+vqypKQklpGR0ennOpuJNjk52WrG2XvuuYe99957Hc5Q21l9xno+i6xKpWIPPfQQ8/PzY46OjkypVLLVq1ezZ599lltmREREt7Gb9cesuL2ZhXig5OXlMUdHR/aPf/yD1zgIIfwoLCxkDg4O7PPPP+c7lH7z/PPPMwcHB3bt2jWr906fPs1cXFzYP/7xDwaAJSQkdLiM+vp6NmLECPbFF19Y/I+6Wd0N/W/rfv/9d2ZnZ2fxf7UjmZmZDABra2u7qfV0NtVBZ+X9wVbbKikpifn6+t70vh0M9Ho98/f3Zw888ADfoQwIm01W6urq2KhRo1h8fPyQ/sIR21NXV8eCgoJYVFQUMxqNfIdDCOHJQw89xHx8fHiZ56m/mUwmplQqOz3YNCcrLS0tzMfHhwkEApaXl2dV79VXX2UrV67k5qUa7snKU089xQCwd955p1/XQ8lK57766isGgO3Zs4fvUPrNa6+9xkQiESspKeE7lAFhk93AAMDNzQ3fffcdfv31V6xevbrX/ToJuRlqtRrx8fFoaWnBrl27OuzmRwgZHt5++204ODjgvvvusxqMZLDLy8tDVVVVt/c4CIVCPP3002CM4c0337R4T6vV4oMPPsBf//rXLpehUqnwxBNPYMyYMXBycoJCoUBiYiJyc3O5OuYbxJuampCRkcHdLG7uWmy+J9P8KCwsxPLly+Hu7s6VffrppxZ1bhwlqba2FuvXr0dAQACEQiF8fX0RFxeHL774gruPU6/X46WXXkJISAjEYjFGjBiBRYsWYe/evT3qEvjLL78AwE1Nv9A+PicnJ7i5uWH+/PkdTj/QWz1pg47i6Gg/9batumqHzrbzxmVcuXIFK1asgFwuh7u7OxYuXNjpAAXmezh+/PHHP7zfbNEvv/yC1157DZs2beqz7pc2j+9sqTspKSlMLBaz2NhYVlNTw3c4ZAgrKChgISEhzNvbm124cIHvcAghNiAzM5M5OTmxRx55xKKL7WD373//mwFgb731Vofvm6+sMMaYTqdjSqWS2dnZsfPnz3N13nnnHbZ8+XLGGOv0ykp5eTkbPXo0UyqV7MCBA0yj0bBz586x6Oho5uzszDIzMy3qd3e2PiEhgQFg0dHRLC0tjTU1NbHs7Gxmb2/PXQEz12lubuY+V1FRwfz9/Zmnpyfbt28fa2xsZJWVlTp+MO8AACAASURBVOz1119nANiWLVsYY4ytWbOGyWQyduTIEabT6VhlZSXbsGEDA8DS0tK63a9eXl4MADt+/Hi3ddszx6dUKtm+ffuYWq1mhYWFLDExkQkEArZjxw6L+r25stKbNujpfmKs523VUTv0dDvNy0hISGCZmZlMq9Wyo0ePMpFIxKZOndrhetVqNQPAoqKiOo1tsMrLy2Pu7u4sMTFxSP096o7NJyuMXf+jOWbMGObv789yc3P5DocMQfv372cymYxFRkZ22H+bEDJ8JScnM0dHR/bEE08Mma6h7777LgNgdV+iWftkhTHGNm3axACwlStXMsYYa2pqYkqlkusa1lmyct999zEAbOfOnRblFRUVTCgUWt3b0dMD4IMHD3Zbp/1B8urVqxkAtmvXLqv68fHx3EG4v78/mz59ulWd4ODgXiUrJ06c6LZue+b4vv76a4vylpYW5u3tzUQiEausrOTKe5Os9KYNerqfGLu5ZKW322lexr59+yzq33HHHQxAp100BQIBCwwM7DS2wSg3N5d5eHiw2bNnM51Ox3c4A2pQ9HGZOHEiTp06hbFjx2Lq1Kl48skn0dTUxHdYZAioq6vDk08+icWLF2PRokX46aefuDkWCCEEAJYsWYKdO3fik08+wR133DEk/v+Yu+b0dALmRx99FO7u7vj6669x8eJFfPLJJ4iMjOy2u9OePXtgZ2dnNYStp6cnQkNDkZOTc1MzcN922229qm+eMLmjkZMOHTqEdevWAQDi4+ORmZmJtWvXIjs7m+v6VVhYiJiYmG7XY/7/UVNTc1PxLViwwKJcKBQiNjYWzc3NN92tqTdt0NP9dLNudjunTp1q8drc/amzuZAcHBw6naJhMNq/fz+ioqIQFhaGvXv3QiQS8R3SgBoUyQoAuLu74/Dhw9i0aRM+//xzhIeH49ChQ3yHRQYpk8mE7du3IygoCLt378auXbvw73//e9j9ASCE9ExSUhJSU1ORnp6OGTNm4Pz583yH9Ic4OzsDANra2npUXyKRYN26dTAajXj55ZexefPmbudS0ev1UKvVMJlMkMlkVpNN/vbbbwDQ6XxmXXFxcelxXXMczs7OkEqlXdb96KOP8OWXX6K4uBixsbFwdXVFfHw8d5DdnejoaADAmTNn+iw+pVIJ4Po8Zb3VmzbozX66GX9kO2UymcVrJycnAOh0aGSDwTAk/p8bDAa88sorWLJkCVasWIFDhw716rs/VAyaZAW4nik/9dRTKCwsxPTp03H77bdj5syZ2LdvH9+hkUHCZDJh3759mDp1Kh577DGsXLkS+fn5uOOOO/gOjRBi42bMmIETJ05AJBJhypQp+PDDDwftjfdeXl4Arg8q0lOPP/44ZDIZvvrqK4SHh2PKlCld1hcKhZDL5XBwcEBbWxvY9a7nVo9Zs2ZxnzFPXNyXhEIhZDIZWlpaoNFouqwrEAiwatUqpKSkoKGhAXv27AFjDImJiXj//fe7XddDDz0EBwcHfPfdd13We+aZZ2BnZ4eCgoJu46uqqgJw/UpIb/WmDXqzn4Det1V/bmd7jY2NYIxx3/HB6uLFi4iKisK7776Lv//979ixY0ePr4QONYMqWTHz8vLCl19+iZ9//hnOzs5YvHgxZsyYQVdaSKfa2trw+eefIyQkBEuXLkVISAjOnDmDrVu3wtXVle/wCCGDxJgxY/Drr7/i5Zdfxvr163Hbbbfh5MmTfIfVa+PHjweAXnXBkslkWL9+PWQyWY9nqE9MTITBYEBGRobVe5s2bcKoUaMsRvsUi8VobW3lXo8bNw7bt2/vcYydWbp0KQDg4MGDVu9NmjQJTz31FABALpejoKAAwPUucnPmzOFGpjpw4EC36wkODsbLL7+MU6dO4bPPPuuwTmFhIT755BMsX74cISEhFvHduA69Xo/U1FSIRCLMmzevh1trqTdt0NP9BNxcW/Xndppdu3YNwH+/44NNW1sbtm7dikmTJkGr1SI7OxuPPvoo32Hxi4f7ZPrcb7/9xpKSkphAIGDBwcHsnXfeYVVVVXyHRWxAUVERe/nll7lJMVetWsUKCgr4DosQMgScPn2aTZ8+ndnb27PHHntsUP3fMZlMzMPDo9t5Vnqqsxvsq6qqWEBAABs7diw7ePAga2hoYLW1tWzbtm1MLBZb3cgdHx/PZDIZKykpYZmZmczBwcFiBLKObtq+UVejUHl5ebH9+/ezxsZGVlpayh555BGmVCrZ1atXGWOMyWQyFh0dzfLy8lhLSwurqqpir7zyCgPA3njjjR7vj2effZY5OjqyjRs3ssLCQqbX61lZWRn79NNPmZeXF5s5cybTarVW8ZlHyWpsbLQYJWv79u0Wy+/NDfa9aYOe7ifGbq6terudnbX3xo0bGQB2+vRpq31gnmclOTm5w7axZcnJySwoKIi5uLiwTZs2sdbWVr5DsglDIlkxy8vLY4899hiTy+XMycmJJSUlscOHD9OkksNMU1MT++qrr9js2bOZQCBgPj4+7MUXX7T4I0sIIX3BZDKxf/7zn8zLy4tJJBL24osvMrVazXdYPfLXv/61wxnsXVxcGADuMW/evC6X076u+fHBBx9w79fW1rL169ezsWPHMkdHR6ZQKNjcuXPZ0aNHrZZVUFDAoqKimIuLC/Pz8+NGK8vKyupwPe0lJydbvd8+eaqpqWHr1q1j/v7+zNHRkXl5ebE777zTYqj63Nxc9tBDD7FbbrmFicViNmLECBYZGcl27NjR66FiT5w4wVatWsWdLJNKpSwyMpJt3bqV6fV6q/o3xieTydi8efNYamoqV+e9996z2sbnn3++0/KbaYOe7Keu2qq37dDRdnbU3ubtubF8wYIFFnElJSUxHx+fQXWgn5qayqZNm8YEAgFbvnz5sJnssacEjA3SDrddaGlpwb59+7B9+3akpqbCzc0NCxYsQFJSEubOnQuhUMh3iKSP6XQ6pKam4ttvv8WePXvQ1NSE2bNnY+3atVi6dCk3WRUhhPQHnU6HDz74AJs2bYLRaMTq1auxceNGmx5dUK1WIzQ0FAsXLsS2bdv4DoeQPywvLw+TJk3CV199hTvvvJPvcLqVnp6OTZs2Yf/+/YiLi8Pbb7/d7b1gw9GQTFbau3TpEr7//nt8//33OHnyJFxdXbFw4ULcfvvtiI2N5UafIINPcXExUlJSsG/fPhw9ehQmkwkxMTFYtmwZli5dCg8PD75DJIQMM/X19fjwww/xwQcfQKvV4v7778ejjz6K0NBQvkPr0OnTpzFnzhy8+uqreOyxx/gOh5CbVlxcjDlz5uDOO+/Em2++yXc4ndLpdNi1axe2bNmCc+fOYf78+Xj22WcRFRXFd2g2a8gnK+2VlpZi9+7dSE5ORmZmJgwGA8LCwhAXF4c5c+YgKipqWA4JN1jU1tbip59+QkpKClJSUlBcXAwXFxfMnj0biYmJWLx4MUaMGMF3mIQQAp1Oh88++wxbt27FxYsX8ac//Qlr1qzB8uXLIZFI+A7PwpUrV/CXv/wFX331FQ04QgatjRs3YtKkSTZ7ReW3337Djh078PXXX6OlpQVJSUl4+umnu52riAyzZKU9nU6HzMxM7sD3t99+g729PYKDgzFz5kzMmDEDERERuPXWW/tlKEXSveLiYqSnpyMnJwcZGRk4ffo0BAIBJk6ciLi4OMTFxSEqKoq69RFCbFpOTg62b9+O//u//4O9vT2WLFmCe++9F3FxcXyHRgjpR42Njfjmm2+wfft25OTkYNy4cbj//vtx//33U++PXhi2ycqNKioq8NNPPyE7OxvZ2dnIy8tDW1sbPD09ERkZicmTJyMsLAwTJkyAv78/JTB9qK2tDRcuXMDZs2dx5swZ5OTk4Pjx41Cr1XBxcUFERAQiIyMxffp0xMTEWE0ORQghg0FtbS3+/e9/49NPP0V+fj7Cw8Nx7733YunSpfD39+c7PEJIHzAPw/yf//wH3377LYDrk8quWbMGM2fO5Dm6wYmSlU40NzcjJyeHS15yc3Nx+fJlmEwmSCQSjB8/HhMmTMD48eMxbtw4BAYGYtSoUXQjdxf0ej2Ki4tRVFSEwsJCnD17FmfPnsX58+fR2toKR0dHjBs3DpMmTUJkZCT+9Kc/ISwsjPYpIWTIycrKwqeffork5GTU19dj8uTJWLp0KZYuXWqz97cQQjqm1Wpx6NAh7N69GwcPHoRGo8HUqVNx33334Z577qGTrH8QJSu9oNVqkZ+fjzNnzuDMmTPcwXZdXR0AwMnJCWPGjEFQUBCCgoIQEBCA0aNHw8fHB97e3lAqlUP6iozBYEBVVRVKSkpQUVGBK1euoKioCBcvXsTFixdRUlICk8kEAPDx8eESPnPSd+utt8LJyYnnrSCEkIFjNBqRlZWFb7/9Ft999x3Ky8vh7++PRYsWISkpCTNmzBjS/zcIGazq6uqwf/9+7N+/HwcPHkRLSwsiIyOxaNEiLFu2DIGBgXyHOGRQstIH6urqcPHiRe7A3PyzuLgYKpWKq+fk5AQvLy/4+vrC19cXnp6ecHd3h7u7O0aOHAmFQsG9dnd3h7OzM49bdV1TUxNqa2tRU1MDlUqF2tpai0dZWRkqKipQWlqKqqoqGI1GAIBAIIC3tzcCAwM7fNjaDaaEEMI3k8mErKwsJCcnY/fu3bh8+TJ8fX0xd+5cxMXFYfbs2TSCJSE8MRgMOHnyJFJSUpCamoqMjAzY29sjLi6OG+Rn5MiRfIc5JFGy0s+am5u5A/qSkhKUl5fj2rVr3MF9+wP/G5tCKBRCLBZDLpfD2dm5w+ftz7iJRKIuE5ympia0trZyrw0GAzQaDTQaDVpaWrjnzc3N0Gq10Gg0MBgMFstwcHCwSKi8vb3h7e2NUaNGwdvbGz4+PvDz84OXlxccHR37aC8SQsjwk5ubi7179+Lo0aM4fvw4DAYDxo8fj9jYWMTGxiI6OhpSqZTvMAkZsvLz85GamoqUlBQcO3YMjY2N8PHxQVxcHObPn4/bb7+dfgcHACUrNoIxZnXVQq1WQ6fToaGhAc3NzWhubrZ4Xl9fb7EMrVaLtrY2ANe7FjQ1NUEqlXIJjbOzM0QiEVff3t4erq6ukEgkEIlEkEqlkEqlEIlEkEgkkEqlkMlkXGKiUCio3yUhhPBAq9Xil19+4c7qnj17Fvb29pg2bRpiY2Mxa9YsTJkyha5aE/IHFBUVISMjg/s9q6yshFwux6xZs7iTBCEhIXyHOexQsjJEpaWlYfbs2aiuroZCoeA7HEIIIX1IpVLh559/RkpKCo4ePYrLly/D3t4e48aNQ0REBCIiIjBz5kxMmjQJdnZ2fIdLiM3RaDTIy8tDRkYG0tPTcfz4cahUKjg4OCA8PJybIiE6Opp6ivCMkpUhipIVQggZPsrLy5GTk8PNS5WZmQmdTgepVIoJEyZwyUt0dDTN70CGHaPRiIKCAu73Iz09HQUFBTCZTPDy8uJ+P8xz7LXvhUL4R8nKEEXJCiGEDF8GgwGFhYWdHpyFhobi1ltvRUREBEJDQxEaGmoTg7oQ8kfV19cjPz8f58+fR35+PnJycnD69GnodDpIJBKEh4dzycmf//xnGrRiEKBkZYiiZIUQQkh79fX1OHHiBHJzc7nh9wsKCtDW1gYnJyeEhoYiLCwM48ePR3h4OMLCwuDl5cV32IR0qLW1Ffn5+dw0Enl5eTh79iwqKysBAEqlkpseISwsDFOmTMEtt9xC3SIHIUpWhihKVgghhHSntbUVv//+O3fAZ05irl27BgBwd3dHUFAQgoODuTnEAgMDERQUBFdXV56jJ0Od0WhESUmJxdQQFy5cQFFRES5fvgyDwQBnZ2fceuutXFJiTlCou+PQQVODE0IIIcOUk5MTwsPDER4eblFeW1uLM2fO4Pz589wBYlZWFq5cucKNOqlUKrkEpn0iM2bMGMjlcj42hwxCbW1tuHbtGi5dusQlJObvXHFxMTflgjlxDgoKQmRkJMaNG4ewsDAEBQXBwYEOZ4cyurIyRNGVFUIIIX3NYDCgpKQExcXFFo/8/HwUFhZyEwM7OzvD29sbY8eOhZeXF/fc/Hr06NE0zPIwUV9fj/LyclRUVHDfl/avr169yn1v5HI5AgICuO+K+REaGkpdEocxSkUJIYQQ0iMODg7cAeSNWltbuYPPsrIylJaW4sqVKygrK8Px48dRUlKClpYWrr6npyd8fX3h6+sLHx8fKBQKKBQKeHp6wsPDAwqFAkqlkq7S2KDW1laoVCpUVVWhqqoKKpUK1dXVqKyshEql4tq/tLTUqs39/Pzg5+eH0NBQ3H777dzrsWPH0slV0iFKVgghhBDyhzk5OSEkJKTLSfOqq6u5g9iSkhKUlJSgrKwMZ8+ehUqlgkqlQk1NjcVnhEIhFAoFPDw84OnpyT338PCATCaDXC6Hm5sb5HI591omk8HJyam/N3lIaGxsRENDAxoaGqBWqy2e19bWQqVSobKyEtXV1VyCcuOk1M7OzhaJZkBAAGJiYjB69GguGfHz84NQKORpK8lgRskKIYQQQgaEOcmIiIjotE5bWxuXuNx4kGw+i5+fnw+VSsUdXHdELBZbJDDm566urnBzc4O9vT1cXV3h6OgIiUQCZ2dniEQiiMViCIVCSKVSODg4QC6Xw87OjrvCI5FIBnySwMbGRhiNRuj1euh0Ouh0Ouj1emg0GhgMBqjVahiNRjQ0NMBgMECj0aC1tRVNTU1obm6GRqOxSkjq6+vR0NCAju4GcHZ2hkwmw4gRI7gkJDw8nLvapVQquSthXl5ekEqlA7o/yPBCyQohhBBCbIajoyO8vb3h7e1tdeN/Z8wH3uYD8RuvELR/XlxcjIaGBhiNRqjVarS1tUGr1aKlpQXNzc03HXNH9+DIZLJOh8ptamribh43MycaN0MgEEAul8PBwQFSqRRCoRBisRhisRhSqRQymQwhISFc0nbj1aj2z2nOHWJLKFkhhBBCyKDm5uYGNze3PlmWOYkwX82or6+H0WhEY2MjAHR4NaK5udni3gwAMJlMUKvV3Ov33nsPMTExmDp1KgBwyURH23IjkUgEZ2dnODk5wcXFhXttvsrTVVJEyGBHyQohhBBCyP/n4uICFxeXPkt+zDZv3ozZs2fj0Ucf7dPlEjLUURpOCCGEEEIIsUmUrBBCCCGEEEJsEiUrhBBCCCGEEJtEyQohhBBCCCHEJlGyQgghhBBCCLFJlKwQQgghhBBCbBIlK4QQQgghhBCbRMkKIYQQQgghxCZRskIIIYQQQgixSZSsEEIIIYQQQmwSJSuEEEIIIYQQm0TJCiGEEEIIIcQmUbJCCCGEEEIIsUmUrBBCCCGEEEJsEiUrhBBCCCGEEJtEyQohhBBCCCHEJlGyQgghhBBCCLFJlKwQQgghhBBCbBIlK4QQQgghhBCbRMkKIYQQQgghxCZRskIIIYQQQgixSZSsEEIIIYQQQmwSJSuEEEIIIYT0szfffBNisRg//vgj36EMKpSsEEIIIYQMsF27dmHixIkQiUQQCAQQCAQ4d+4c32HxZvPmzdx+8PX15TucPnfw4EFs3rwZP/74I+bNm8d3OIMKJSuEEEIIIQMoIyMDd911F+bOnQuVSoWLFy8OygN0rVaLoKAgLFy48A8va8OGDWCMITw8vA8isy1FRUV4/PHHceTIEURFRfXLOvqyLWyNA98BEEIIIYQMJ99++y0YY3jyySchkUggkUhQWlrKd1i9xhiDyWSCyWSyek8ikWDixIlIT0/nITLbEhQUhEuXLnVZ54/ur67aYrCjZIUQQgghZACZExN3d3eeI/ljpFJptwfhZGAM5bagbmCEEEIIIQPIaDTyHQIhgwYlK4QQQgghAyAvLw8CgQA//PADAHA310dGRnJ1amtrsX79egQEBMDJyQlubm6YP38+0tLSuDpvvPEGdzP6zJkzufLDhw9z5SNHjuTK9+zZw5ULBAIUFhZi+fLlcHd358o+/fRTizpXrlzBihUrIJfL4e7ujoULF1qcub9xmS0tLQD+e6N8U1MTMjIyuPcdHP5YZx6VSoUnnngCY8aMgZOTExQKBRITE5Gbm2tRT6/X46WXXkJISAjEYjFGjBiBRYsWYe/evd0miTdu09WrV7FixQpIpVK4u7tj1apVqK+vx5UrV7Bo0SJIpVJ4eXnhwQcfhEajuamYu9tfN9N25rYwKygowJIlSyCTySAWi3Hbbbdh//79iIuL4z6zZs2aXn+vBqxtGBmSfvrpJwaAVVdX8x0KIYQQMuyNHDmSffTRR4wxxhISEhgA1tzcbFGnoqKC+fv7M6VSyfbt28fUajUrLCxkiYmJTCAQsB07dljUd3FxYTNmzLBaV0REBHN3d7cqN683OjqapaWlsaamJpadnc3s7e2ZSqWyqJOQkMAyMzOZVqtlR48eZSKRiE2dOrXTZd64LZ3F1p3w8HDm4+NjUVZeXs5Gjx7NlEolO3DgANNoNOzcuXMsOjqaOTs7s8zMTK7umjVrmEwmY0eOHGE6nY5VVlayDRs2MAAsLS2tRzGYtykxMZGdOnWKabVa9uWXXzIAbP78+SwhIYGdPn2aaTQatm3bNgaAPfXUUzcdc0/2V2/arn1bFBUVMblcznx8fNiRI0e4OOLi4phCoWBCodBqXb35Xg1E21CyMkRRskIIIYTYjp4kK6tXr2YA2Ndff21R3tLSwry9vZlIJGKVlZVc+c0mKwcPHuw0TnOdffv2WZTfcccdDAB3YHxj/f5MVu677z4GgO3cudOivKKiggmFQhYREcGV+fv7s+nTp1stNzg4uNfJyoEDByzKQ0NDGQB27Ngxi3J/f382bty4m46ZsZ4nKz1pu/ZtkZSUxACw7777zqJudXU1E4vFfzhZGYi2oW5ghBBCCCE2IDk5GQCwYMECi3KhUIjY2Fg0Nzf3yYSCt912W7d1pk6davHaz88PAFBeXv6H199be/bsgZ2dndWwvJ6enggNDUVOTg7KysoAAPHx8cjMzMTatWuRnZ3NdS8qLCxETExMr9Y7ZcoUi9fe3t4dlvv4+Fjtl97E3Bs9abv2Dh8+DABWc7soFAqEhIT0ev03Goi2oWSFEEIIIYRner0earUazs7OkEqlVu8rlUoAQGVl5R9el4uLS7d1ZDKZxWsnJycAGPChcc37xWQyQSaTWdybIRAI8NtvvwG4PpcJAHz00Uf48ssvUVxcjNjYWLi6uiI+Pp5LBHvD1dXV4rWdnR3s7e0hFostyu3t7S32S29j7o2etF37ODQaDZydnSGRSKzed3Nz6/X6b1z+QLQNJSuEEEIIITwTCoWQyWRoaWnp8GbtqqoqANfPWJvZ2dmhtbXVqm5DQ0P/BdpDAoGgT5YjFAohl8vh4OCAtrY2sOu3MFg9Zs2axa131apVSElJQUNDA/bs2QPGGBITE/H+++/3SUx9HbM57v6IQyqVoqWlBVqt1ur96urqDj/X0+/VQLUNJSuEEEIIITZg6dKlAIADBw5YlOv1eqSmpkIkEll05/Hy8sK1a9cs6lZWVqKkpKT/g+2GWCy2OOAdN24ctm/fflPLSkxMhMFgQEZGhtV7mzZtwqhRo2AwGAAAcrkcBQUFAABHR0fMmTOHG1Hrxv3an3oTM9C3+6u9+fPnA/hvdzCzyspKXLhwocPP9OZ7NRBtQ8kKIYQQQogNePvtt+Hv749169Zh//790Gg0uHDhAu6++25UVFRg69atXHcwAJg7dy7Ky8vx4YcfQqvV4tKlS3jyySfh4eHB41ZcN3nyZFy4cAGlpaXIyspCcXExoqKibmpZb7/9NgICAvDAAw/g0KFDUKvVqKurwyeffILXXnsNmzdvthga+eGHH8aZM2eg1+tRXV2Nd999F4wxzJ49u682r89j7sv91d5bb72FESNGYN26dTh69Ci0Wi3OnTuH+++/3+IqXXu9+V4NSNt0eus9GdRoNDBCCCHEdowcOZKtXbuWAbB6ZGVlcfVqamrYunXrmL+/P3N0dGQymYzNmzePpaamWi2zoaGBrVmzhnl5eTGRSMRmzpzJTp48ySIiIrhlb9y4kWVlZXW43vY6qvP8888zxphV+YIFC1hycrJV+T333MMtr6CggEVFRTEXFxfm5+fHjYTWmffee6/T9TPGWG1tLVu/fj0bO3Ysc3R0ZAqFgs2dO5cdPXrUYjm5ubnsoYceYrfccgsTi8VsxIgRLDIyku3YsYOZTKYuY+hsH5w8edKq/O2332a//vqrVfnLL7/c65i72l89abvu2qKwsJAtWbKEubq6MrFYzKZPn86OHTvGYmNjOxwNrKffq4FqGwFjjHWeypDBKi0tDbNnz0Z1dTUUCgXf4RBCCCHDmkKhwKuvvopHH32U71AIAQDExcUhPT3dahJJW0PdwAghhBBCCCE2iZIVQgghhBBCiE2iZIUQQgghhJBh4ptvvoFAIEBqair0ej0EAgHWrFnDd1idcui+CiGEEEIIIWQouPPOO3HnnXfyHUaP0ZUVQgghhBBCiE2iZIUQQgghhBBikyhZIYQQQgghhNgkSlYIIYQQQgghNomSFUIIIYQQQohNomSFEEIIIYQQYpMoWSGEEEIIIYTYJEpWCCGEEEIIITaJkhVCCCGEEEKITaIZ7IeAlpYW5OfnW5RduHABAJCXlwc3NzeuXCAQYPLkyQMaHyGEEDKcNDY2wmg0WpQxxqDT6VBfX29R7uLiAicnp4EMj5BBRcAYY3wHQf6YtrY2KJVKqz+AHZkxYwbS09MHICpCCCFkeLrrrrvwzTff9KhuYWEhgoOD+zkiQgYv6gY2BDg6OmL58uVwdHTssp6dnR3uuuuuAYqKEEIIGZ56+r92woQJlKgQ0g1KVoaIu+66C21tbV3WEQgEuOOOOwYoIkIIIWR4io+Ph6ura5d1HB0dcd999w1QRIQMXpSsDBF//vOf4eXl1en7dnZ2mDVrFpRK5QBGRQghhAw/Tk5OSEpKd1KHlwAAIABJREFU6rLHg8FgwIoVKwYwKkIGJ0pWhgiBQIB77rmny5v0Vq1aNYAREUIIIcPX3Xff3WmPBzs7O8yYMQM+Pj4DHBUhgw8lK0PIXXfdhdbW1g7fs7e3R0JCwgBHRAghhAxPMTExUCgUHb4nEAhw7733DnBEhAxOlKwMIZMnT0ZgYKBVuYODAxYvXgyZTMZDVIQQQsjwY2dnh5UrV3baFSwxMXGAIyJkcKJkZYjp6A+j0WjEPffcw1NEhBBCyPDU0eA39vb2iI+Ph7u7O09RETK4ULIyxKxcuRIGg8GiTCQSIT4+nqeICCGEkOFp6tSp8Pf3tyhjjGHlypU8RUTI4EPJyhATEBCACRMmQCAQALg+NOKKFSsgEol4jowQQggZflatWmXR48HJyQkLFy7kMSJCBhdKVoage++9F/b29gCuz25/99138xwRIYQQMjy17wrm4OCApUuXQiKR8BwVIYOHgDHG+A6C9K3y8nL4+vqCMYYRI0agurqaS14IIYQQMrDCwsKQn58Pxhj27dtHV1YI6QW6sjIEeXt7Y+bMmQCu38NCiQohhBDCn3vvvReMMbi6umLu3Ll8h0PIoOLAdwDEWktLC3Q6HRoaGtDU1ISmpiZotVqo1WqYTCYAgEajsbiRXq/XQ6fTca9HjhwJ4PoMuZs2beLKpVIpHBz+2+xCoRBisRjA9ftbJBIJ5HI5xGIxxGIxZDIZJBJJl7PwEkK6ZjQa0djYCLVaDa1Wyz3q6+sBACaTCWq1mqvPGENDQ4PF68bGRovhx+3s7CxeCwQCyOVyANdHG3J1deV+f80PNze3/t5UQoakxsZG7v+x+ffY/Bq43uVaq9VafMb8+w0AarUaAoEAwcHB2LJlC1fu7OxscU+pg4MDpFIpgP/+HkulUri4uMDFxQVyuRwuLi5dTgBNyFBD3cD6CWMMNTU1qKmpQW1tLWpqaqBSqVBdXc29Nj80Gg10Oh00Gg0aGxthNBq7Xb5YLIZQKORet/8DB1w/+KmoqLCaHbehoQHtm1yn00Gv13e7PicnJ+4PpVgshlQqxciRI7mHh4eHxWt3d3d4eHhwB0+EDBVarRaVlZWorq5GTU0NqqurUVlZCZVKBZVKhcrKSqjVajQ0NECj0UCr1aK5ubnb5crlcm5gDACQyWSws/vvxW8XFxfuwAiwPjjq6GCpI+2TF5lMBoVCAYVCgZEjR0KpVEKpVHJlnp6eUCgUNEAHGRIMBoPF/97q6mqoVCqLsqqqKjQ2NlqcLNRoNN0u+8aTBwDg6upq0bOhqqoKMpkMzs7OXFlTU5PFZM43nnjszI0nF11dXbn/vwqFwup/soeHBxQKBd0rQwYlSlZugsFgQHl5OUpLS1FSUoLS0lKUlZXh6tWrKC0txbVr11BTU8NdBTGTyWQdHtS7urpyCYD5uVgsxv9j773jorj2///XLr0sC6ICIiKiKEWRFiwgICpFkcgVFY0txpioMWo0tnz13ujHFI0pxsTEXBNsoNGIYkHF2EAI1S5gQUQFBKR3lvfvD387l2UXZJFlFpnn4zEPZeaU1+6e95zznjnnfQwMDJj/i5+uNH4r8ipiY2MxcuTIVqcX3ySLiopQWVmJyspKlJaWMs5URUUFiouLmfONna68vDwUFBRIDKaAlzfU7t27o0+fPjAzM0Pv3r1hbm7O/L9Pnz4wNjaWGKRxcLBFfX09nj59ikePHiErKwuZmZnIyspCVlYWHj16hJycHCnHQyAQwMTEhBngGxkZwcDAAPr6+lKOgZ6eHnR1daGjo8O8+WjskLQXYselqKiIeQJcXl4u4UCJ39aKH6SIHa3nz59LDZZ0dXVhZmYGc3NzmJubo2/fvhL/NzEx4WyYg1Xq6uqYfvnRo0fIzs5mDrHtFhYWSuTh8XgS/bF4kC8UCqX6X3Hf3Pjtho6OjlyD/xMnTsDf37/VNl9fX4+ysjKUlJQwfbD4rU5lZSVj0+I+ubETJn6Y0vR+pampCSMjI8aezczMmP5Z/Df3kJFD2eCclWYoLy9HRkYGc6SnpzODlpycHObth5qaGkxMTNCnTx/G4E1NTZlBS2OnpCu8tq2qqkJhYSHzFkk8EMrKysKTJ08YBy83N5d5w6Ouro7evXujd+/e6N+/P6ysrDBgwAAMHDgQ/fv3l3iDxMHxuhARHj9+jLS0NNy+fRtpaWnIyMhg2qh4eqWmpiYzIBcPysW23bNnTxgbG6N79+4ST0nfFCoqKpg3RuLBj3jQJ3bkGn9XGhoazPc0cOBA2NjYYNCgQbC1tUXPnj1Z/jQcbwpVVVVIT09n+uW0tDSmTebm5jL9srq6OkxNTZkBeJ8+fdCrVy/GZhsfinhYoExUVFRIPFAsKChATk4O0xeLH7i+ePGCySMQCNCnTx+Ym5vDysoKAwcOZP5tOluDg6Mj6PLOysOHD3H37l2JG2BGRgaePn0K4KUzYmFhASsrK/Tr10/qDYGxsTG3gL0N1NbW4unTpxJvpLKzs3H//n1kZGQgOzsbDQ0NUFFRgbm5OeO8iG+atra2MDExYftjcCg5Dx48wM2bN3H37l3mSEtLY6ZLGRkZwcbGBgMHDpR4YyB+W8DRPOK3UOK3TuIjLS0Nd+/eZdbcdOvWDTY2NrC2tmYcmCFDhnDfL0ez5Obm4ubNm4xDIu6fHz9+DCKCqqoq+vbtCysrK/Tv35/pl8XOibGx8RvvhLQ3FRUVyMrKYpwX8cMJ8XcvtmeBQAArKytYWVlh0KBBGDhwIAYNGgQbGxtubSuHwugyzkp9fT3S09Nx584d3L59G8nJyfjnn3+Qn58PADAwMEC/fv1gY2MDW1tb9OvXj/mbm6/d8dTW1uLJkye4ffs27ty5g4cPH+Lhw4e4ffs2cnJyALz8zWxsbODk5MQc1tbWXCfVRXn27BmSk5OZo7F9m5iYMHYttnE7OzsYGxuzrPrNpaioSMJ+xf/PzMwEEcHExETCdl1dXbm3MF2QpnYrbi/A//rlpn2ztbU1ExiGo2MoKiqSsOPGfXJ1dTVUVVVhZWUlYdMODg7Q0dFhWzrHG8Ab6ayIRCLcvHkTsbGxSE1NxbVr13Dr1i3U1NRAU1MTdnZ2cHBwgIODA4YOHQo7OzuJxekcyk1BQQFu3LjB/LapqalIT09HfX09BAIB7O3tMXToUDg5OWHEiBGwsrJiWzJHO1NVVYWrV68iNjYWiYmJSEpKQm5uLvh8PgYOHAhnZ2fmsLe35zpMJeLFixdITU1lfrekpCRkZWUBAPr16wcXFxe4uLjAzc0NTk5Ocq3T41Bunjx5gitXriApKQmpqalITU1FcXExVFRUYGVlxfTL4r7Z0NCQbckcr6Curg4ZGRnM79nc7+ro6Ijhw4fD2dm5S0yJ52hf3ghnpaKiAgkJCYiJiUFsbCzi4uKYMJ+Ojo7MjW/o0KGwtrbmOr83kKqqKty6dYu5UV67dg3Xr19HVVUVjIyMMGLECLi7u2PEiBFwdHTkXld3MqqqqhAfH4+LFy/iwoULSEhIQE1NDTO4dXZ2houLCxwdHbkHD52Q/Px8JCUlMQ5MYmIicnNzIRAI4O7uDk9PT3h6esLR0ZGbdttJICLcvXsXMTExiImJwZUrV/Do0SOoqqpiyJAhEo4J90DhzePhw4dISUlh+uSUlBTk5eVBS0sLb731FkaNGoWRI0dixIgR3D2b45V0SmelrKwM58+fx+XLlxEbG4uUlBTU19fD3Nwcbm5uGDlyJNzc3GBra8tNCerC1NbWIjk5GbGxsYiJicHVq1eRn58PbW1tvPXWW3B3d4eHhwfc3Ny4RfxKRkNDA+Lj43H27FlcvHgR8fHxqKmpgaWlJTNw9fLy4hZ7vsGkpaXh4sWLzJGXlwc9PT3GefH19YWdnR3bMjkacf36dYm+uaCgALq6uhg2bBjc3Nzg7u4OV1dXzjHpomRkZCA2NpZpH/fu3YOKigrs7e2Z/tjb2xt6enpsS+VQMjqNs3Ljxg1ERUXh9OnTiI2NhUgkwpAhQySck969e7Mtk0PJSUtLw9WrV3HlyhXmZqmjowNvb2/4+vrC19cXFhYWbMvsklRWVuLcuXOIjIxEZGQknj9/DgsLCwnnxMzMjG2ZHCxx584dxnG5dOkSnj9/DktLS0ycOBEBAQFwd3fn3pp3MGVlZYiOjsbp06dx6tQpPH36FD169GAcEzc3Nzg4OHC/C4dMcnNzmbduMTExuH79Ovh8Ptzc3ODn5wd/f3/Y2tqyLZNDCVBaZ6WkpIS5CUZFReHp06fo2bMnfHx84Ovri3HjxjG7tHNwtJWsrCxERUUhKioK0dHRKC8vx6BBg+Dn5wdfX1+MGjXqjQxNqyzk5eUxzsm5c+dQU1ODt956C4GBgZg4cSJsbGzYlsihhDQ0NCAhIQHHjh3D8ePHcefOHXTr1g3+/v6YOHEifH19uaklCuLu3bs4deoUTp06hZiYGNTX18PFxQXjx4+Hn58fnJycuD13ONpEYWEhzpw5g1OnTuHMmTMoKCiAubk5/Pz84OfnB29vb+6tXBdFqZyVqqoqREdHY+/evTh27Bjq6+vh4OCAMWPGYMKECRgxYgQ3rYtDYYhEIsTFxeHEiROIjo5GSkoKNDU14e3tjVmzZiEwMJBbGNgOVFdXIzIyEnv27EFUVBRUVVXh5uaGCRMmIDg4GL169WJbIkcnIzMzE8ePH8eJEydw6dIl8Pl8jB07FrNmzcLbb7/NrVF7TbKyshAREYHQ0FCkpqaiW7du8Pb2xpgxYxAQEMCFoeZodxoaGpCamoro6GhERkYiLi4O6urqGDNmDIKDgzF58mQuIlwXgnVnpaqqCidPnsTBgwdx8uRJ1NfXY+zYsZg6dSomTJiAbt26sSmPowuTnZ2NiIgIhIeHIy4uDgYGBpg0aRKmTZsGLy8vbqGvHBARrly5gtDQUBw+fBiVlZXw9fXFrFmzMH78eK7T4Wg3CgsL8ddffyE0NBRXr16FsbExZsyYgdmzZ3NrXOTg6dOnOHToEMLCwpCYmAgjIyNMmTIFU6ZMwfDhw7n7H0eHkpeXh4iICISFheHKlSvQ09NDUFAQpk+fDk9PT649vuGw4qwQES5cuIDdu3fj+PHjqKyshIeHB6ZNm4agoCAuXCGH0pGVlYVDhw4hPDwcKSkpMDIyQnBwMObPn48hQ4awLU9pef78OXbu3InQ0FA8fPgQDg4OmDVrFqZPn87tqcGhcO7fv4+9e/diz549ePToERwdHTFv3jzMnj2bm04ig+rqaoSHhyM0NBSXL1+Gnp4eJk2ahJCQEIwePZobEHIoBU+ePGEc6aSkJJiYmGDKlClYsGABrK2t2ZbHoQA61FkpLS3F3r178dNPP+HOnTsYPnw4pk+fjsmTJ3Obs3F0Gu7du4fw8HDs27cPGRkZcHd3x8KFCxEUFMRNE/v/SUtLw7Zt27B3714IBALMmjULs2fPxuDBg9mWxtEFISJcvnwZoaGhOHjwIDQ1NfHBBx/go48+4voeAI8fP8bPP/+M3377DaWlpXj77bcREhICPz8/LlIih1KTkZGB8PBw7N27Fw8ePIC3tzcWL16MCRMmcM71mwR1AOnp6bRq1SoyMDAgTU1NmjlzJqWmpnZE1RwcCuXKlSsUHBxMqqqqZGRkRKtWraKsrCy2ZbGG+PtQUVEhS0tL+u6776iiooJtWRwcDMXFxfTdd9+Rqakpqaur08yZM+nGjRtsy2KFxvcvY2NjWrVqFWVnZ7Mti4NDbkQiEZ07d47pf3r16kUbNmyg/Px8tqVxtAMKdVYuX75M3t7eBIAGDBhA27Zto6KiIkVWycHBCllZWbR27Vrq2bMnqaqqUkhICN29e5dtWR1GdHQ0ubi4EAByd3eniIgIEolEbMvi4GiWqqoq2rVrF1lbWxOPx6Px48fTzZs32ZalcBoaGujQoUNkZ2dHAMjNzY3Cw8OptraWbWkcHO3CvXv3aOnSpSQUCklLS4sWLVpET58+ZVsWx2ugEGfln3/+oXHjxhEA8vT0pKioKGpoaFBEVRwcSkV1dTXt27ePbG1tSUVFhWbNmkUPHjxgW5bCuHXrFvn7+xMAGj9+PP3zzz9sS+LgkIuGhgY6ceIEOTo6koqKCr333nv07NkztmUphJMnT5KDgwPx+XyaPn06N8OB442mrKyMduzYQWZmZqStrU0rV66kgoICtmVxtIF2dVZu3rxJwcHBxOPxaNiwYXT8+PH2LL5FdHR0CIDUwePxqHv37hQYGEgJCQmvzLNlyxaJNKamplJp1q1b1+Y62SYjI4MAkKurK9tSmuXo0aMS32dVVRXbkuRGJBLRoUOHyMrKitTU1GjmzJlvlNOSn59PS5YsIVVVVbK1taWTJ0+yLUkKRbejsrIyKdu/evXqK/OtWLFCIs/GjRtfW0tb7TosLIzRoaGh8do6OjPiNw4WFhakra1Nq1atopKSErZltQuxsbHk6elJAGjMmDGUkpLCtqQOJTU1lebPn09WVlako6NDOjo6NGDAABo7dix98cUXlJKS0iEPVMPDw8ne3p40NTUZu+sKb/PYpqamhn755RcyNjYmXV1dWrVqFRUXF7Mti0MO2sVZefbsGU2fPp14PB45OzuzNnBJTU0lABQYGMicKy4upr/++ot69uxJampqdO7cuVfmaUpmZiYBoJEjR7ZLnfLg6upK48ePb3P+pqxZs4a5Sd6+fbvdylUEgYGBndZZEVNXV0f//e9/qW/fvqShoUGrVq2i8vJytmW1mfr6evrmm29IV1eXzMzMKDQ0VOmneym6HYnvAQDIz8+vxbQFBQWkq6tLAGjGjBntpuF17drb21thzkpZWRn179+/Xe9jiqSyspK++OILEgqF1KtXLzpy5AjbktrMgwcPaPz48YyT0tXefIpEIvr0009JRUWFFi9eTKmpqVRZWUlFRUWUkJBA7777LmM3iYmJCtUSExNDPB6PVq5cSWVlZXT//n3q3bs356x0IGVlZbRx40bS19en7t2706+//srN+ukkvJazIhKJ6Pvvvyc9PT2ysLCgI0eOsPrDt+R47Nu3jwCQra1tq/OIkddZeVWd8tCezopIJCJTU1NycHAgALRixYp2KVdRvAnOipiamhravn076evrU58+fejo0aNsS5Kbu3fv0rBhw0hdXZ3+/e9/U2VlJduSWkVHOCtaWlpkbm7+ykHPunXryNraul2dlfawa0U6K6WlpdSvX79XOnLKxvPnz2nu3LnE4/FoypQp9Pz5c7YltZra2lratGkTaWlpkZ2dHZ0/f55tSaywdu1aAkA///xzs2lWrVrVIc7Kxx9/TADoyZMnCq2H49UUFhbSsmXLSFVVlUaMGME5jJ2ANm8Hn5mZCU9PT6xcuRIfffQRbt26haCgIPB4vLYWqVC8vLwAALdv30ZxcfEbW2dLnD17Fqqqqvj1118BAHv37kV9fT3LqroG6urqWLx4MdLS0uDh4YGgoCDMnDlTKdpFawgNDYWzszNEIhGSk5OxYcMGaGlpsS1LaeDz+Vi9ejUAYNOmTTLTFBcX4+eff8aqVavatW5lt2uBQIAHDx7g1KlTbEuRix49emD37t04ffo04uPjMXToUFy6dIltWa8kIyMDI0aMwObNm7F+/XqkpKRg9OjRbMvqcO7evYsvv/wSTk5O+OCDD5pNt3r1amhqaipcT3Z2NgBw+8gpAd26dcO2bduQmJiIhoYGODs7Y9u2bWhoaGBbGkcztMlZCQsLw9ChQ1FcXIyEhARs2rRJ6XegpkbbyXSUQ8VGnS2xe/duzJkzB87OzhgyZAjy8vI63QCis2NkZIQ9e/bgxIkTiI6OxpAhQxAbG8u2rGapra3Fe++9h7lz5+LDDz9EbGwstwt4M8ydOxempqY4fvw4bty4IXX9hx9+gL+/PywtLdu1Xs6uFYuPjw+uX78OV1dXeHt746uvvmJbUrOEhobC0dERRISUlBSsXr0aampqbMtihV9//RUNDQ0IDg5uMZ2+vj6qqqrg7OysUD0ikUih5XPIz9ChQxETE4MNGzZg9erV8PHxQX5+PtuyOGQgl7NSV1eHpUuXYvr06ZgzZw4SExNhb2+vKG3tysWLFwEAtra2EAqFb2ydzfHixQtERkZi9uzZAF4OrICXA53GbN26FTweDzweD71790ZiYiK8vb0hEAigra0NLy8vqcF1fX09Dh48iLFjx8LY2BhaWloYPHgwvv/+e5lPKgoLC7F8+XJYWlpCQ0MDvXv3xpgxY/DHH3+gqqpKKn1ubi6mTp0KfX19GBoaYsKECXjw4IFUuvz8fCxZsgR9+/aFuro6evTogaCgIFy7dq3N35ui8Pf3x82bNzF06FCMHj0aO3bsYFuSFC9evMC4cePw559/4tixY9iyZQurA5+2tM3GvKodvW75GhoaWLlyJYgI//d//ydxrby8HNu3b8fatWul8hUXFzP1ig/x25n6+nqJ85MnT5bI21q7FpOWloa3334bQqEQOjo6cHd3R0xMjFS6iIgIiXqzsrIwdepUCAQCGBoaYubMmSgqKsKjR48QEBAAgUAAExMTzJ8/H2VlZc2WU11dLfP8o0ePWmXjbKGvr48jR45gy5YtWLduHebOnYva2lq2ZTHU1dVhyZIlmDt3LhYuXIi4uDgMHDiQbVmscvnyZQCQe4zStG2mp6djypQpMDQ0ZM4VFBS0ut8Tl3fs2DEAgJaWFng8HoYNGwag9f1nW2xG3r65K6KiooI1a9bg6tWrePDgAZydnZGSksK2LI6mtHa+WHl5Ofn4+JCOjg4dOHBAUdPSXgtZ60dKSkpatcC+NUdr16y8qk55aK81K9u3bycvLy/m7/z8fFJTUyNVVVXKy8uTSm9vb086Ojo0fPhwunr1KpWXl1NiYiINGTKE1NXV6eLFi0zayMhIAkCbN2+mFy9eUH5+Pv3www/E5/Ol5s/n5OSQhYUFGRsbU2RkJJWWllJubi5t3LiRANC3337LpBWvNQgMDGQ0nD9/nvT09MjFxUWi3GfPnpG5uTkZGRnRyZMnqaysjG7dukUeHh6kqanZqihNbNDQ0ED/+c9/iM/n05IlS5RmsV9ubi7Z2NiQubm50m2YJ0/bJJKvHbWl/NTUVNLR0SGil4uzjYyMiM/n0507d5g0X375JU2ZMoWIXm7EBxlrVnx8fIjP59P9+/elNA0fPpz2798vdV4eu7537x7p6+uTqakpnT17lsrKyujGjRs0btw4JgBEU8TfXVBQECUlJVF5eTnt2bOHCSYQGBhIqampVFZWRjt37iQAtGzZsmbLabpuSNZvc+7cOdLS0pL52ygDJ06cIIFAQH5+flRdXc22HKqoqCBfX1/S0dGhgwcPsi1HaTAxMSEAbQ4qIG6bHh4edOHCBaqoqKD4+HhSUVGh/Px8ufq9xuU1tYG2ltMam5G37K5OQUEBjRkzhrS1tSkqKoptORyNaJWzUlRURCNGjKAePXoofBHa6yDL8eDxeGRoaEgTJ06UGUa4vRbYy1Nnc6ioqLTacTIyMmp1uUREjo6OtGfPHolzkyZNIgC0detWqfT29vYEQCoO/40bNwgA2dvbM+ciIyPJ09NTqox33nmH1NTUJMJ/zpkzhwDI7FR9fX1lOiuRkZES6aZPn04AJHamnT17NgGQGtDl5OSQhoYGOTk5SdWnTBw6dIjZTbu+vp5VLXl5eWRjY0MDBgxQysWg8rRNIvnaUVvKb+ysEBF99dVXBIDeeecdIno5mDQyMqLr168TUfPOypkzZwgALVy4UOJ8TEwMmZqayty0Tx67Dg4OJgB0+PBhifNPnz4lDQ2NFp2VphEebW1tCQBdunRJ4ryFhQUNHDiw2XKac1aa/jaTJ0+W+dsoCwkJCaSvr09+fn5UU1PDmo7S0lJyd3en7t27K3XfzAbGxsYtOitiOxcfTccA4rZ56tQpmfnl6fcalyfLWWlLOa2xGXnL5ngZwXPWrFmkrq7eqSMBvmm80lmprKykUaNGUe/evSktLa0jNLWZ1jgebcnT1mhg7UF7vFm5fv06CQQCqqiokDh//PjxZqOViZ8uy6JXr14E4JUbp23ZsoUAyb0nhEIhAaDS0tJX6hbflHNzcyXOr1y5kgAwgz9xuXw+X+bN19HRkQBQdnb2K+tkk7Nnz5KWlha9//77rGmoqqqi4cOHk6WlpVI6KkTyt0152lFbym/qrJSVlZGhoSGpqKjQvXv3aNu2bRL3h+acFSKiwYMHk7a2tsTGZYGBgfTll19KpZXXrgUCAQGgsrIymfW25Kw0fUszduxYAiBVt5ubGwkEgmbLac5ZafrbLFu2TOZvo0wkJiaSnp4ezZ07l5X6a2pqaOzYsWRsbKz0YejZwMnJSaaj3ZTExMQWnRV5NxGU1e81Lq+1UQlfVc7r2ExzZXO8pKGhgRYtWkTq6updNpKestHimhUiwsyZM3Hr1i1ERUV1+TmwnZXdu3ejrKwMOjo6EnNeJ06cCOBltLKEhASpfPr6+jLL69mzJwDg+fPnAICSkhKsX78egwcPhoGBAVP+ypUrAQCVlZUAgJqaGpSUlEBTUxMCgaDV+puu9+HzXzZb8ZxbcbkNDQ0QCoVS8//F80/v3bvX6jrZYOzYsTh48CB2797dbEQpRbNgwQKkpaXh5MmTMDU1ZUVDa2ht22zMq9rR65YvRldXF0uXLoVIJMKGDRuwdetWfPbZZ82mb8zSpUtRWVmJn376CcDLyE5///033n//fam08th1TU0NysrKoKmpCV1d3WY/V3Po6elJ/M3n86GioiIVWEVFRaVNc+Gb/jbq6uoAZP82yoKzszPCw8OxZ88efPvttx1e//vvv49//vkHp06dgo2NTYfXr+yMGjUKAF57/YGOjo7M863t915FW8tpjc20l8auBo/Hw/bt2/Gvf/0LkyZNwp07d9iW1OVp0VnZvn07jh07hqNHj8LW1rajNHG0I3UkVYegAAAgAElEQVR1ddi/fz9iY2NBL9+kSRxLly4FAPz+++9SeQsLCyUimokRD9TEA5yAgABs3LgR8+fPR0ZGBhoaGkBETAcuLkNDQwNCoRDV1dUSi3BfFw0NDejr60NVVRV1dXUyPycRMaGklZmAgAB89913+Pe//42///67Q+v+888/sXfvXuzfv1/pH0y0tm2yVf5HH30EoVCIAwcOwN7evtWRhmbMmAEjIyP8+OOPqKmpwTfffIPZs2fDwMBAIp28dq2hoQGBQIDq6mqUl5dL1fvixYtW6eOQxM/PD5s2bcKaNWtw8+bNDqt3z5492LNnD8LCwuDg4NBh9XYm5s+fDz6fj/DwcJm2/Lq0tt/rqHI6uuw3HR6Phz/++AO2traYNm0aExyEgx2adVYyMjLw6aefYsOGDcwTCo7OR2RkJLp3744RI0bIvD5v3jwAL8NRN43EVV1djcTERIlzN2/exLNnz2Bvbw8TExOIRCLExsbC2NgYS5YsQY8ePZgwzbIie02aNAkAZIZWdXBwwLJly+T/kACCgoJQX18vM1rTV199hT59+ijV3hMtsWjRIkyaNAmzZs2SObBUBCUlJVi0aBEWLFgAPz+/DqnzdWhN22SzfKFQiOXLl0MoFLb6rQrw0qlYuHAhnj9/jm+++Qb79+/Hxx9/LJWuLXYt/l2joqIk0hYUFCA9Pb3VGjkkWblyJZydnTFv3rwOGfw9e/YMixcvxvLly+Hv76/w+jor1tbWWL16NW7fvo2vv/662XRtCSksb7+n6HI6uuyugrq6Og4cOIDs7Gxs2LCBbTldmmadleXLl6N///7MRmccnZPff/8d7777brPX7ezs8NZbb6GkpAR//fWXxDWhUIi1a9ciLi4OFRUVSEpKwjvvvAN1dXV8//33AF5O+/D09ERubi62bNmCgoICVFVV4cKFC9i5c6dUfV988QUsLCywbNkynDx5EmVlZXjy5AkWLlyInJycNjsrX3zxBSwtLfHuu+/i9OnTKCkpwYsXL/DLL7/g888/x9atW6Gqqtqmstngl19+QXV1Nb788ssOqe/rr79GfX09Nm/e3CH1vS6taZtsl79+/XoUFxc361A0x8KFC6GlpYXPPvsMY8aMQf/+/aXStMWuN2/ejG7dumHp0qU4d+4cysvLcefOHbzzzjsyp4ZxtA4VFRX8/PPPSE5OxuHDhxVe39q1a6Gvr4/PP/9c4XV1djZu3IiVK1dizZo1mDdvHpKTk1FZWYmqqircvHkTmzdvRmBgIFRUVOTaZ0Xefk/R5XR02V2Jvn37YuPGjfjuu++Ufir5G42shSziBWevE3K3o9HR0ZGKmCUrKs2r8mzZskUijampqVSadevWtblOeWnrAvvs7GwJXa6urlJpxIEDGh/iKGP29vZkampKd+7cIR8fHxIIBKSlpUUeHh4UExMjUU5+fj4tWLCAzMzMSE1NjYyMjGjOnDm0evVqptzG0bgKCgpo6dKlZGFhQWpqamRiYkLTpk2jjIwMIiKKi4tr9jtver7xd1NYWEjLly+nfv36kZqaGvXo0YPGjRvXqdpxY7Zu3Ura2tpUVFSk0HoqKipIT09P5iJuZaS1bbOt7Uiett/0HuDj49Oi9qb1AqDt27dLpZs/f77MaFuva9fp6en09ttvk56eHhPq9MSJE+Tt7c2knTdvXrPfnbhvaHx88cUXTNCAxseGDRvo6NGjUudnzJjR5t9GmQkJCVF41MHMzEzi8/kyw1hzNE9ycjK9++67ZGlpSVpaWqSurk7GxsY0evRo2rRpEz18+JBJK6ttyhoqtbbfk2UDACguLk6uctpiM/L2zRyyqaurIysrK5o/fz7bUrosPCLp99bz58/HP//8I3MXZo6uwdChQ1FQUIAnT56wLaXLUlpaClNTU2zevBkfffSRwurZu3cv5s2bh6dPn6JHjx4Kq6e9UHTbVIa2//vvv2PHjh1ISkpiTQOHfFy+fBkeHh64du2awjZL/uyzz7B79248fvy4U70p5uDo7Pzwww9Yt24dnj17JleAII72QWoaGBEhIiKC2RGZg4ODHfT09BAUFISjR48qtJ6TJ0/C29u7UzgqXYWdO3di+fLlbMvgkAN3d3f07t0bJ0+eVFgdERERCAkJ4RwVDo4OZsaMGaisrER0dDTbUrokUs7KnTt3UFBQAE9PTxbkcHBwNMbLywvx8fGora1VWB1xcXFwc3NTWPkcr+a3337DpEmTUF5ejp07d6KoqAhTpkxhWxaHHPB4PIwcORJxcXEKKb+wsBB37tzh+mYODhYwNDTEkCFDEBMTw7aULomUs3L//n0ALxdocnQ9tm7dCh6Ph+vXr+Pp06fg8XhyRTPiaF8GDx6MqqoqhU1Jqq+vR3Z2NqytrRVSfnui6LbJdtuPiIiAgYEBfv75Z4SHh3NPzzsh1tbWePjwoULKzszMBBFxfTMHB0vY2dkxY2SOjkXKWSkoKIBAIICGhgYbejhYZsWKFVJ7NrC1QSEH0L17dwAv7VIRFBUVgYjQrVs3hZTfnii6bbLZ9t977z0QEerq6nD9+nU4Ojp2SL0c7YuhoSEKCwsVUrb4HmBoaKiQ8jk4OFqme/fuyM/PZ1tGl0TKWdHU1ERNTQ0bWjg4OJogjoevqampkPLFux4rcpoZB0dXobq6WmEP+sT3AM5WOTjYobq6WmF9MUfLSDkrPXv2RG1t7Ru1o3FWVhYmTpyI0tJS5pxIJMLOnTsxYsQICIVCqKmpoVevXvD398ePP/6IR48esSdYyTA2NgaPx5M40tLSJNJMnjwZPB4PT58+lTj/2WefSeRr7b4h4ik5PB4PvXv3blWe1atX4+DBg637UJ2E3NxcAFDY4nc9PT2oq6sjLy9PIeV3BLLsuzH37t0Dj8fDsGHD5Co3PDycaYOdtYPS1dWVsl3xoa2tDXt7e2zbtk1qYzxZ+fh8PgwMDGBvb4+FCxciOTm51XW2Nm9nt+G8vDzmbWh7I74H5OTkKKT8jkBsq5cvX5ZqI7L2EyouLpZKp6y0pc/qKnR2uxaTk5ODnj17si2ja9I0lnF+fj7xeDw6efKk4gMndwCpqanUvXt3qb0MQkJCiM/n01dffUXZ2dlUVVVF9+/fp7Vr1xKPxyNDQ0OWFEtTVlZG/fv3Z3W/gV9//ZUA0NKlS6Wu1dfXk76+PgGg//73v1LXCwsLSV9fn2pra+WuV7znRWu4f/8+WVhY0GeffSZ3PcrK5s2bycTERKF1ODs708cff6zQOhRFc/bdmDVr1jB7Cty+fVvuOry9vUlDQ+N1ZDZLR9h2amoqAaDAwEDmXGlpKV26dImGDBlCAGjZsmWvzFdfX0+5ubkUERFBXl5eBIDmzJlDFRUV7Za3s9uwp6cnzZs3TyFl19XVka6uLu3atUsh5SsaWbY6b948if1CmmPixIn01VdfEZFy9IctIavPUibNbGjp7HYtxsTEhGmHHB2LzE0hBw8eTIsWLepoLe1OSUkJ9e7dmxYsWCBxPiEhgQA0u8HPwoULlcpZKS0tpX79+pGfnx9rGh4/fkwAaNCgQVLXYmNjSVtbmwBQcHCw1PXw8HCJgZI8yOOsEBFdu3aNeDweHTx4sE31KRvu7u40Y8YMhdaxdOlSsrGxUWgdiqA5+26MSCQiU1NTcnBwIAC0YsUKuetRpLPSEbYty1kRc/XqVQJA2traUg8TWspHRPTpp58SAJo4cSI1NDS0W97OasOlpaWkra1Nu3fvVlgd48aNo6CgIIWVryias9WYmBgCQGZmZiQSiWTmzcvLI01NTXr27BkRKUd/2BKy+qyO1qyjo0MjR46UeY2t76+z2rWYlJQUAkDx8fFsS+mSyHRWtmzZQkKhkMrLyztaT7uybt06UlVVpadPn0qc//333wkAbd26VWa+ixcvKpWzoixYW1sTAMrKypI4v379elq+fDnp6uqSgYEB1dfXS1yfO3cu/fTTT22qU15nhYgoODiYevfuTXV1dW2qU1m4ffs2AaCzZ88qtJ74+HgCQImJiQqtp71pzr4bc/r0aTI3N2d2XjcyMpK7XSjSWekIWnIcCgsLmbdO+fn5rc5HRNTQ0ECurq4EgA4cONBueYk6pw3v2rWLNDU16cWLFwqrY+/evaSmpka5ubkKq0MRtGSrAwYMIAB05swZmXm3bNlCEyZMULTEdqMtfVZ705Kzwiad0a7FfPjhhzRw4ECphyscHYPUmhUAmDNnDkQiEb777rv2nHHWoRARfvvtN7i6uqJXr14S14yMjAAA586dk5nXw8NDYdGXOjO+vr4AgKioKInzUVFRCAgIwOjRo1FUVISEhASJ62fPnmXydgSTJk3CkydPFLo5W0fwn//8B9bW1hgzZoxC63F1dcXgwYPx9ddfK7Se9qQl+27M7t27MWfOHDg7O2PIkCHIy8vDqVOnOlCpcpOeng7g5XoIedda8Hg8LF68GADw008/tWvezmbDIpEI27ZtQ3BwMAwMDBRWz+TJk9GtW7dWr/1TBl5lq3PmzAEA/P777zLz//7775g7d64iJXJ0EJ3NrsVkZ2fjjz/+wKJFi5R63dSbjExnpXv37li9ejW+/PJLZGdnd7SmduH69evIy8uDvb291DV3d3cYGxvjzJkz8PPzw8WLF9HQ0PDKMvPz87FkyRL07dsX6urq6NGjB4KCgnDt2jUmTUREhMRiwPT0dEyZMgWGhobNLnQVh0etr6+XOD958mSp8qqrqyU0FRYWYvny5bC0tISGhgZ69+6NMWPG4I8//mAiSbVW+6vw8fEBAJw5c4Y59+LFC6SlpWHEiBEyr9+6dQva2tqwsLB4LS1paWkYP348hEIhtLW14eXlhdjYWJlphw4dKqWjs3Hp0iX8+eef+Prrrzvk5vj555/j8OHDUo6mstKSfYt58eIFIiMjMXv2bABgBjy7d++WmT4tLQ1vv/02hEIhdHR04O7uLnMDsKY2mZWVhalTp0IgEMDQ0BAzZ85EUVERHj16hICAAAgEApiYmGD+/PkoKytrthyxbTc9/+jRI0ydOhX6+vowNDTEhAkT8ODBgzZ/dwBQXl6OK1eu4IMPPoC2tjZ27tzZpnLEm4nGx8ejrq6u3fJ2NhsODQ3F/fv38f/+3/9TaD2ampr4/PPP8dNPP0kFOVFWXmWrs2bNAp/PR0REBIqLiyWu/fPPP3j+/DkCAgIANG8zAFBTU4P169dj0KBB0NbWRrdu3RAQEIDjx48zASQ2bdrE5G28EW5UVBRzvqnTXl9fj4MHD2Ls2LEwNjaGlpYWBg8ejO+//75V44bX1SyPBvEi/4qKCsTGxjJ1ivdskmc8oa6uDgMDA/j5+eHChQvNfh557k+dza7FrF69Gr169cL777/PtpSuS3OvXCorK2nQoEE0atQoqWk9nYG9e/cSANq8ebPM61euXCEzMzNmCkTPnj1pxowZdODAAZkLRp89e0bm5uZkZGREJ0+epLKyMrp16xZ5eHiQpqYmXb16VSJ9YGAgASAPDw+6cOECVVRUUHx8PKmoqFB+fj75+voSn8+n+/fvS9U1fPhwqakR4vKqqqqYczk5OWRhYUHGxsYUGRlJpaWllJubSxs3biQA9O2337ZJe3NUVVWRlpYWCYVC5jVueHg4BQQEENHLRXQAyNXVlcmzdetWWrx4cZu/R3t7exIKheTl5UUxMTFUVlZGiYmJNGTIEFJXV6eLFy9K6SwpKSEA5O7u3qrPpWwUFhZSnz592rzOp614eXmRra2tRBtTVl5l30RE27dvJy8vL+bv/Px8UlNTI1VVVcrLy5NIe+/ePdLX1ydTU1M6e/YslZWV0Y0bN2jcuHHUt29fmdPAxDYZFBRESUlJVF5eTnv27CEA5OfnR4GBgZSamkplZWW0c+fOZheyy7LtxucDAwPp6tWrVF5eTufOnSMtLS1ycXFp9XclnpIl6xg4cCAdOXKkxXwttcOqqiqmLPGagtfNS9S5bDg7O5sMDAxkBh9RBPX19eTi4kKOjo5UXV3dIXW+Dq2x1XHjxhEAqenCCxYskPm9yrKZ9957j4RCIZ09e5YqKyspNzeXVqxYQQDowoULEvmbmybl5OQkNQU8MjKS0f/ixQvKz8+nH374gfh8vsw1cM1NA3sdzfJqeNU0sJbGE0ZGRhQZGUklJSWUnp5OQUFBxOPxpAI7tOX+1JnsWkxYWBjxeDw6ceIE21K6NM06K0RE169fJ01NTfrkk086Sk+78fXXXxMA2rFjR7NpqqurKTQ0lAIDA0kgEDAdp6GhIYWFhUmknT17NgGg/fv3S5zPyckhDQ0NcnJykjgvNuRTp07JrDs6OpoA0MKFCyXOx8TEUJ8+faTmdMq6ucyZM4cAyFyw5uvryzgr8mpvCR8fHwJAV65cIaKX61F+/PFH5rqlpSXx+XwqLCwkIqKxY8dKGLm8Wuzt7QkAxcXFSZy/ceMGASB7e3uZOnk8HvXv37/Vn0tZqK2tJR8fHzIzM6OCgoIOrTszM5MEAoFUm1RGWmPfjo6OtGfPHolzkyZNkrleLTg4mADQ4cOHJc4/ffqUNDQ0WnRWmkZOtLW1JQB06dIlifMWFhY0cODAZstpzlmJjIyUOD958mSZa0yaQ5bjUFdXRw8fPqQNGzYQj8ejoKAguRfYE718qNVWZ6W5vGI6gw3X1taSp6cnDRo0SOZDLkVx7949EggELQaXUBZaY6thYWEEQGKQW1lZSUKhkG7cuCGVXpbNWFhY0IgRI6TSWllZvbaz4unpKZX2nXfeITU1NSopKZE4L4+z0lrN8mpoi7MiHk80HftUV1dTr169SEtLS2KtVFvvT53BrsXcvHmT9PT06KOPPmJbSpenRWeFiOjAgQPE5/ObXYyurHz++ecEgH799ddWpa+rq6Pz58/TtGnTCACpqKhQSkoKc10oFBKfz5e6KRC9HBQBoOzsbOac2JBbGnA6ODiQtra2RJrAwEDatm2bVFpZNxehUEgAqLS0tMXPJq/2lti2bZtEqElTU1OJt0OLFi0iABQeHs50No0DNcirxd7enjQ1NWUuauvVq1ezAx01NTXWFznKS0NDA82cOZN0dXVZW+x+6NAh4vF4LQ4slIFX2ff169dJIBBIDSCPHz9OAMjW1lbivPhhRVlZmVRZgwcPbtFZafqWZuzYsQRAqm43NzcSCATNltOcs9J0MfWyZcsIAF2/fl3GJ5fmVY7DjBkzZDpwrXE4Hjx4QABITU1Nwtl5nbxiOoMNv//++6Srq0vXrl3r8LojIiJIRUWFNm7c2OF1y0Nr+uKqqiom/P2tW7eIiGjfvn3NPkiTZTMffvghAS+jfMbFxbU4I0QeZ6U5tmzZQgBkzgZorbMij2Z5NLTFWWlpPDFz5kwCQKGhoVJlyHt/6gx2TfQyAmrv3r3Jw8OjU7zBfNORuWalMSEhIdi2bRtWrlzZqRbgijdxa+08alVVVYwePRphYWFYtWoVRCIRDh8+DODlvNKSkhI0NDRAKBRKrTlJSUkB8HLzuabo6Og0W+cnn3yCyspKZoFpRkYGLl++jPfee++VesWaNDU1IRAIXpmuLdplIV4of+bMGdy8eROampqwtLRkrjdet3Lp0iU4Ozsz30FbtYjX+zRFvDnT8+fPpa7V19dDS0urVZ9JGaivr8ecOXNw8OBB/PXXX3B2dmZFR3BwMDZu3IglS5Zg3759rGhoDa+y7927d6OsrAw6OjoSbWzixIkAgNu3bzPrc2pqalBWVgZNTU3o6upKlfWqTcD09PQk/ubz+VBRUYG2trbEeRUVlVbNcW+KUCiU+FtdXR0A2lSWLEaNGgUAOH/+vNx5xWt6hg8fDjU1tXbNq+w2vGbNGvz3v//F/v37W1w7pSgCAwPx448/Yv369fjiiy86vP7W0pq+WFNTE9OmTQPwvzVlu3fvxrvvvtvqenbs2IE9e/bg4cOH8Pb2hp6eHnx9fXH06NHXUA+UlJRg/fr1GDx4MAwMDJh7ycqVKwEAlZWVbS67tZoVqQF49XhCHJRIvElxY+S9Pym7XQNAZmYmvLy8YGBggIiICGhoaLAtqcvzSmcFAD7++GN8//33WLNmDVasWCG127EyYmJiAuClkTclNjaWMT5ZeHl5AQCKiooAABoaGtDX14eqqirq6upAL99ISR3ifK1l6tSpMDMzw48//oiamhp88803mD9/fovOhxgNDQ0IhUJUV1dLLNqVla49tVtbW8PMzAzJycnYt28f45yI8fLygrq6Os6cOYOoqCiJ623VIus3BP7npDQdTJaWloKImDag7JSXlyMoKAhHjhzB8ePHMXbsWFb1rFu3Dp988gnmzJnTbIQetmnJvuvq6rB//37ExsbKbF9Lly4F8L/oQxoaGhAIBKiurkZ5eblUeS9evFDgJ2EfIgIg/4CnoaEBO3bsAAAsWrSoXfMqsw0TEVasWIEtW7bg999/ZxxgNvjggw+wY8cOfPbZZ1ixYkW7ObDtSUu22hhxAIx9+/bh/v37iIuLQ0hISKvr4fF4mDlzJqKjo1FcXIyIiAgQEYKCgrBt2zaJtHw+H7W1tVJlNF3gDwABAQHYuHEj5s+fj4yMDDQ0NICI8O233wL4n/20hdZqlleDvEFZXjWeyMvLAwAYGxvL+xElUGa7FnPjxg24u7tDKBTi/Pnz0NfXZ1sSB1rprADARx99hD179mDHjh0YP348CgsLFanrtbGzswMAPHnyROoaEeH58+eIj4+XmTcpKQkA4ODgwJwLCgpCfX29zAhUX331Ffr06YP6+nq5NKqqquLjjz/G8+fP8c033yA8PBxLlixpdf5JkyYBgMxQrA4ODli2bJlCtPv4+ICI8MMPP0iFJNbV1cXIkSPx7Nkz/PHHH1LOTFu0lJeX4/r16xLnbt68iWfPnsHe3l7qxvf06VMA/2sDykxGRgaGDRuGf/75B+fOnZP6vtjiq6++wurVqzFv3jysX7/+tTpkRdCSfUdGRqJ79+4YMWKEzLzz5s0DAISFhTER8/z8/ABIh+UuKChgwvu+qVy5cgUA4OLiIle+NWvWICEhAZMmTUJwcHC75lVWG66ursa0adPwww8/IDQ0FDNnzmRbEj788EPs3bsXP/74IwICAmQOuNmkJVttzFtvvQUbGxs8f/4cM2bMQGBgoFxhoPX19ZkIaWpqahg7diwTuappqFwTExOmjYnJzc3F48ePJc6JRCLExsbC2NgYS5YsQY8ePRhHoHG0zbbSGs1t0aCtrS3hjA0cOBC//vpri1rE44mm31VNTQ3Onz8PLS2t1+6flNWuxfz5558YMWIErKys8Pfff6NHjx5sS+IQI++8sYSEBDIzMyNzc3OZkZiUhYaGBurZs6fMeZtXrlwh4OWuufv376enT59SdXU1ZWZm0pYtW0hdXZ2cnJwk5inm5eWRpaUl9evXj06dOkXFxcVUWFhIO3fuJG1tbalF7s3NQ29KaWkpCYVC4vF4NGvWrGbTtRS9w8TEhE6cOEGlpaWUnZ1NH374IRkZGTGbN8qr/VUcPnyYmWsua47/l19+SQDIxMRE6pq8Wuzt7UlHR4fc3NwoPj6eysvLXxkN7MCBAwSAjh49Ktfn6mhCQ0NJKBSSi4sLPX78mG05Mtm1axepqanRv/71LyoqKmJbDkNL9j1hwgT6+uuvW8z/1ltvEQDat28fEb2MZNetWzeJaGC3b98mHx8f6tmzZ4trVprauI+PD6moqEil9/DwIB0dnVaX09z5VatWEQBKTU1t8TOKaW6BfWZmJrPA3tTUVGrtV9N8IpGI8vLyKCIigkaPHk0A6N1336XKyspX1ilPXiLltOGHDx+Si4sLGRgY0Pnz59mWI0V8fDyZmpqSpaWlVEASNmnJVpsiXowPNL9JJFHzay48PDzo+vXrVF1dTXl5efTvf/+bANCmTZsk8i9evJgA0Pbt26msrIzu379PU6ZMIVNTU6k1K+L2+vXXX1N+fj5VVlbS33//TX369CEAdO7cOYn08qxZaa1meTX4+vqSUCikx48f09WrV0lVVZXu3LnTopam0cBKS0slooE1XXPUlvuTMto10ctgDkuWLCEej0eLFy+WuYaOg13kdlaIiJ4/f06BgYHE5/Ppk08+abbDYZu1a9fK3DVXJBJRTEwMrVixglxdXalXr16kqqpKAoGAnJ2dafPmzTIjuxQWFtLy5cupX79+pKamRj169KBx48ZJ3Cji4uKYm23joyVWrlzZ7IK0o0ePSpU1Y8YM5npBQQEtXbqULCwsSE1NjUxMTGjatGmUkZEht/bWUlxcTKqqqjKjkxD9b6AyZ84cmddbo0W8cBAAmZqaUkJCAnl5eZGuri5paWmRh4cHxcTEyCw/ODiYTE1NlfaGk5uby3QAH3/8sdKHCr548SL16tWLLCwsKD4+nm05DE3tOzs7W8JOGofQFpOZmSllT0ZGRkRElJ6eTm+//Tbp6ekx4TdPnDhB3t7eTNp58+bJtPF169ZRYmKi1PkvvviCeTjS+NiwYUOztt1c+UQkdX78+PEtfkc6Ojoy70c8Ho8EAgHZ29vTp59+KhUkQFY+Ho9HQqGQBg8eTB9++CElJye3us7W5hWjbDZ88OBBEgqFZG9vT+np6WzLaZacnBzy9fUlVVVV2rBhA9XU1LAtiYia74ubkpOTQ6qqqmRmZkYikUjqekv94bVr12jBggVkbW1N2tra1K1bNxo2bBjt2rVLKkBLcXExvffee2RiYkJaWlrk5uZGiYmJ5OTkxJS7atUqInoZ8nzBggVkZmZGampqZGRkRHPmzKHVq1czaZ2cnCT6rMZ22x6aW6tBTFpaGrm7u5OOjg6ZmZkxAVPkHU8IhULy8fGRcM5f5/6kbHZNRJSUlEQ2NjYkFAqZh1ccykebnBUxu3fvJqFQSBYWFnT8+PH20tRuFBcXk6mpaacI78jRPly7do14PJ5U+EVlQCQS0Y4dO0hfX0DXRmoAACAASURBVJ/Mzc2V8ulsc+Tl5TFvDFauXKkUDyg4+34zUSYbzsvLoylTphCPx6MPPvhA6R8sEL18k7F9+3bS1tYmGxsbpZgBwdkqhzLZNdHLWS1Lly4lFRUV8vDwoEePHrEtiaMFXstZIXq5yV9ISAgBIH9//1c+MetoUlJSyNDQUGIvEI43kwcPHlC/fv1o7dq1bEuR4tSpU+To6Ehqamr06aefSoRz7iw0NDTQL7/8QkKhkAYMGEARERFsS+Ls+w1DWWy4rq6OduzYQd27dydzc3OKiopiVU9bePjwIfn7+xOPx6OQkBC6d+8eq3o4W+26KItdE7207V27djFT/n777TeZWyNwKBev7ayIOX/+PLm4uDAbjN28ebO9in5tMjMzafz48TL39uB4c/j000+V5qmNmPPnz9OIESMIAAUEBNDt27fZlvTaZGdn09SpU4nH49GoUaMoISGBVT2cfb85KIMNHzt2jAYNGkTq6uq0fPnyV+5jpewcOXKEBg0aRGpqajR//vxW76mlCDhb7Zoog12LRCI6cOAADRgwgNTV1WnhwoWt3liXg33azVkRc+7cOXJ0dCQ+n0/BwcGUlpbW3lVwcCg9cXFxNGbMGAJAI0eOlNrN/E0gISGBRo0aRTwej4KDg+nBgwdsS+LgaDNJSUnk5eVFAGjChAkSm912dkQiER06dIgsLS1JXV2d3n//fcrJyWFbFgdHh3Du3DlycHBgxqVsv2XkkJ9Why5uLWPGjEFiYiLCwsJw69Yt2NnZYcqUKbh48WJ7V8XBoVTU19fjyJEjGD16NIYPH47a2lpcvnwZMTExzMZ7bxIuLi64dOkSDh8+jGvXrsHW1hYLFix440P9crxZxMbGIigoCC4uLqipqUFcXBwiIyMlNrvt7PD5fAQHB+POnTv45ptvcPz4cQwYMAAfffQREzqXg+NNorq6GqGhoXB2dsa4cePQr18/3Lx5E4cOHUL//v3ZlschL4r0hOrr62n//v00bNgwAkC2trb0008/dfrX6hwcjXn27Bl9/vnnZGpqSnw+nyZMmEDR0dFsy+pQamtr6eeff6YBAwYQn8+ngIAApVjYy8Ehi/r6ejp06BDTNw0bNoz++uuvLjN3vaKigr799luytLQkHo9HY8eOpWPHjsmMwMXB0Zl4/PgxrVmzhnr06EHq6uoUEhKidGupOeRHoc5KY5KTk2nevHmkpaVFenp6tGjRIrp161ZHVc/B0a40NDTQpUuXaOrUqaSmpkbdu3enTz/9lB4+fMi2NFYRiUR09OhRcnNzIwDk7OxMYWFhShWqkqPrUlpaSt9//z1ZWFgQn8+noKCgZkOgdwVEIhGdPHmSfH19ic/nk4WFBW3ZsoUKCgrYlsbB0WoaGhro77//pqCgIFJRUaFevXrRf/7zH26q4xsEj6hjt6YuKSnBwYMH8f333+POnTuwsbFBcHAwZsyYgQEDBnSkFA4Oubl9+zb+/PNP7N+/H/fv34eTkxPef/99vPPOO9DW1mZbnlKRkpKC7777DmFhYRAIBAgODsbMmTPh5ubGtjSOLkRDQwOuXr2KvXv34sCBA6irq8OUKVOwdu1aDBo0iG15SsODBw+wa9cu7Nq1CyUlJfDy8sLMmTMxadIkCAQCtuVxcEgh7o/37duHBw8ewMnJCUuWLEFISAjU1NTYlsfRjnS4syKmoaEBly9fRnh4OA4fPowXL17A1dUV06ZNQ3BwMHr16sWGLA4OKdLT0xEeHo7w8HCkpaXB3Nwc06ZNw7Rp0zB06FC25Sk92dnZCA0Nxd69e5GRkQE7OzvMmTMH06dPh4mJCdvyON5QMjIysGfPHuzZswfZ2dlwdXXFrFmzEBISAgMDA7blKS0VFRU4evQowsLCcO7cOairq2PixIkICQmBj48P1NXV2ZbI0YV5+PAhwsLCEBYWhtu3b6Nv374ICQnB9OnTYWdnx7Y8DgXBmrPSmLq6OkRHRyM8PBwREREoLy/HqFGjEBgYCD8/PwwcOJBtiRxdiIaGBiQnJyMqKgpHjx5FamoqTExMEBwcjGnTpmHYsGHg8Xhsy+yUXL16FaGhoTh06BDKysrg4+ODoKAgBAQEoGfPnmzL4+jkPHz4EMeOHcOff/6JuLg4mJqaYubMmZg1axasra3ZltfpKCgowJ9//omwsDDExsZCX18fkyZNwvjx4zFmzBjujQtHh3Djxg2cPn0aERERiI+PR8+ePTFlyhSEhIRg+PDhXH/cBVAKZ6Ux1dXVOH36NA4ePIizZ8+iqKgIFhYW8PX1ha+vL0aPHg1dXV22ZXK8YeTn5+Ps2bM4ffo0zp49i/z8fJiammL8+PGYOnUqPDw8oKKiwrbMN4bq6mocO3YM+/btQ3R0NGpra+Hq6orAwEBMnDiRG1hytIqGhgYkJibi2LFjOH78OG7fvg0DAwOMHz8eM2fOhLe3N2e37UR2djbCw8Nx5MgRJCYmQlVVFW5ubvDz84O/vz9sbGzYlsjxhlBeXo7o6GicPn0ap0+fRnZ2Nnr06MH0x2PGjIGqqirbMjk6EKVzVhojEokQHx+PqKgoREVFISUlBWpqanBzc2McF3t7e64z4pCb6upqJCYm4ty5c4iKikJycjJUVVUxcuRIxjEeMmQI2zK7BBUVFTh79iwiIyNx4sQJ5Ofno3///ggMDIS/vz+GDx8OLS0ttmVyKAnFxcW4dOkSTpw4gRMnTiA3NxcWFhaYOHEiJk6ciFGjRnEDGQVTUFCAM2fO4NSpUzhz5gwKCwvRt29f+Pn5wcfHB25ubjA0NGRbJkcnQSQS4ebNmzh//jxOnz6NK1euoL6+Hs7OzvD394e/vz+cnJzA57f7bhscnQSldlaa8vz5c5w5cwZRUVE4e/YsCgoKIBAIMGzYMIwcORJubm4YNmwYdHR02JbKoWQUFBTg6tWriImJQWxsLJKSklBbWwtzc3PGOfH29uamNbCM+AHF8ePHcfz4caSlpUFDQwPDhg2Dp6cnvLy84OrqCk1NTbalcnQQpaWluHz5Mi5evIiLFy/i2rVrICK4uLgwDgo3V509RCIREhMTcerUKZw+fRopKSkgItjY2MDd3R1ubm5wd3dHnz592JbKoSSIHxZeuXKF6ZNLS0thaGiIcePGwd/fHz4+PujRowfbUjmUhE7lrDSGiHDnzh2mocfExCAzMxOqqqoYOnQo3NzcMHLkSDg5OcHCwoJtuRwdiEgkQnp6OpKSkhATE4OYmBikpaWBx+PBxsaGaRtubm7o27cv23I5WiA7OxsXLlxgBqqZmZnQ1NTE8OHD4enpCQ8PDzg6OnJO5htEfn4+EhIScOnSJVy8eBEpKSloaGiAnZ0dvLy84OnpiVGjRnFP7pWUFy9eIDY2lhmIJiUloa6uDn369GGcF1dXV9jZ2XERm7oIOTk5SE5OZtpFUlISampqYGpqilGjRmHkyJEYNWoUbG1tubcnHDLptM6KLHJzc5GYmMg4L4mJiaitrYWenh4GDx4MJycn2NrawsbGBs7OztzT2TeA2tpa3Lt3D8nJycxx7do1VFRUQFVVFfb29oxjMnr0aG6A08nJyclBTEwMoqOjce7cOWRmZgIATExMJB5QODo6cqGkOwGlpaW4ceOGhP3evXsXRIR+/fphzJgxGDlyJLy9vWFqasq2XI42UFdXhxs3biA6Opp5uFhUVARVVVVYWVnBycmJOYYOHcqtSe3kPHv2TMKek5OTkZOTAwDo168f0x+PHDkStra2LKvl6Cy8Uc5KU8rLy3Hjxg1cu3YN165dQ2pqKm7duoXq6mpoaGjA1tYWDg4OsLOzw8CBA2FlZYW+fftya2CUkNraWty/fx/p6enIyMjA9evXce3/a+/O46Iq+/6BfwYYlmEZUHZUFlPEDXFP0FzIJTOUNK2sNDXN1DvNXOquvNPqzrr1abE0e9pcsVySRHO/VdAMxR0w2QTZFRhwWGaY6/dHD+fnCCSYcAb4vF+v8xLOua453zPDOOcz55zrnDuHq1evorKyEg4ODggMDESPHj0QFBSEHj16oEuXLhxms5nLyMhAbGwsfv/9d8TGxiI2Nha3bt2ChYWF9KVEjx49EBAQgICAAO7wysRgMCA1NRVXrlzBlStXEBcXh9jYWCQlJUEIgTZt2qB3795GE79YaJ70ej0SExMRFxdnNBUWFsLMzAwdO3ZEUFAQAgMD0bFjRwQEBMDPz4//l5uYvLw8xMfH4+rVq9J7Oi4uDkVFRTA3N5dex6qpZ8+eHDKc7luzDis10ev1SEhIkALMuXPncOnSJeTk5AAALC0t8dBDD0nhpWPHjvD394e/vz+cnZ1lrr75y8jIwNWrV3H16lUkJiZK4SQ1NRWVlZVQKBRo164dunbtih49ekjhxM/Pj8MXEoA/h6+tCi6xsbG4cOECbt68CQBQq9UICAhAly5d0KlTJ3Tp0gUBAQHw9vbm388DoNfrkZSUhMuXLyMhIQGXL19GfHw8EhISUFpaCgBo06YNAgMDjYKJu7u7zJWT3FJSUozCy6VLl3D9+nUIIWBhYQFfX1906tRJ+jz29/dHp06deF1DA6r6kjAhIUH6TE5ISEBiYiIKCgoAAHZ2dujUqZNRMOnevTuPbNMD1eLCSm3KysqQlJSEK1euIDk5GZcvX8aVK1dw9epVFBcXAwCsra3h6ekJPz8/eHh4VPu5Q4cOcHBwkHlLTFdZWRkyMzORnJyMzMxMZGVlGf1853Pt6OiI9u3bw8/PD35+fujcuTO6dOkCf39/niZA9VZQUGD0vq76NyUlBUIIWFpaok2bNtXe21WTt7c3j7jiz1N68vLypPfunVNmZiZSUlKkUOLh4SGddtulSxf4+fkhMDCQO5dUZxUVFcjIyJDer1Xv4QsXLtzzc7nqd29vb35m1KKgoMDos/juz+br169Dr9cD+P/v57s/k318fHidCTU4hpV7EEIgPT1d+nY/PT0daWlpyMjIQEZGBq5fvy59OAOAi4sLPDw84OHhAWdnZ2lycXGBq6ur0TxnZ+cm/W2uXq9Hfn6+NOXm5iIvL89oXk5ODnJzc5Geng6NRiP1dXBwQNu2bdGuXTu0adNG+tnPzw/+/v68QSA1isLCQsTHx+OPP/5ASkoK0tLSpCk9PR0VFRUAIIUZLy8vtG7dGl5eXnBxcYGLiwvc3d3h6uoKFxcXuLm5wdHRUeatqr+8vDzk5uYiPz8fWVlZ0ns5JycHOTk5yMvLQ3p6OjIzM2EwGAAANjY28PHxgbe3tzT5+PhI33jzm1VqSBkZGUhMTERKSor0uZyeni5NZWVlUtuqEOPm5iZ99rq6uhp9Jle9f5vyYB06nU767K16/9b0e3Z2Nq5fv270HLm5uaFt27bSZ3HV1KFDB3Ts2JHDx5OsGFYegLy8PGRkZEj/YWZlZRn9J1G1I19YWGjUz8zMDE5OTlCr1bCzs4NKpYKdnR3UajVUKhVUKhUcHR1ha2sLlUol/Sd693mfDg4ORt/62tnZGY2yUlZWZhSoKioqcPv2ben3yspKKUgUFhZCq9VCq9WiqKgIJSUl0Gq1KCkpQVFRkbSsoKCg2vYoFAq0bt0aQgj4+/vDzc1N+kBo06YN2rRpA29vb7Rt25ZHoMjkGQwGZGZmIjU1FWlpaUhNTcWxY8fw22+/oWvXrrh165YUzu9kZWWFVq1awdbWFmq1Gg4ODrCzs4OdnR3s7e2l93TVPAsLC6MdJCsrK6MdfRsbG6PBQG7fvi2FKAAoLi6Wvv0E/nwPCyGk92/VVFhYWOPvt27dMupvbm4OFxcXODs7w83NDW5ubnBxcZHev1WTm5vbA32+iR6knJwcKbhcv34dGRkZRl+mVYXwOz8LgT/ff05OTlCpVHBycjL6/K36bK56b1d91t79Hr37PWxpaWl0S4U7P3OBP/+vKSoqMqqj6jQrjUYDrVaL27dvo7CwELdv38bt27eNPpNv376NgoKCao9hbm4uBbGqgFb1xWnVZ3HVxAGHyJQxrDSiqm89bt68Kf1nWVhYKO003B0Kbt++XS0w3P2f3INSFYDuDko1hShbW1s4OjpWO0rUunVrpKWloX///ujVqxd2797Nm7NRs3HkyBGMGjUK8+bNw8qVK6X5VadGVR2VyMvLw61bt1BSUgKNRlMtNBQUFEg/a7ValJeXQ6vVPrA67e3tpQBUFYgcHByknauq+Y6OjrC3t4eTkxM8PDykI0UuLi5N+ogvUX2UlpZKRx6qji4WFBRIX8rdHQ6qftdoNNIXBSUlJdDpdA+0rqovIe3s7GBrawtbW1spRNna2lYLT46OjlIouXMiag4YVpo4IUS1IxxFRUXSqRoAoFQqjc7ZNTMzg1qtbrCazpw5g8GDByMsLAwbNmzgjg81eRcvXsSgQYMwcuRIbNq0qUHP0a4KMFXu3hGytrY2OiVDpVLBysqqweohovq5+z1cWlpqdMoVUP0MCbVazWs/iGrBsEINIioqCmFhYXjzzTexbNkyucshum8pKSkYMGAAAgICsHfvXgYDIiKiRsSwQg3mf//3fzF9+nSsWbMGs2fPlrsconrLz89HSEgILC0tcezYsSZ58TwREVFTxgsKqMFMmzYN169fx7x58+Dl5YWwsDC5SyKqs9LSUoSFhaGiogJHjx5lUCEiIpIBj6xQgxJCYPr06di6dSsOHjyIhx9+WO6SiO6psrIS48ePx4kTJ3DixAn4+/vLXRIREVGLxLBCDa6yshLh4eGIiYlBTEwMOnToIHdJRLUSQmDGjBnYvHkzDh48iAEDBshdEhERUYvFsEKNQqvVYtiwYcjLy0NMTAxv+kgm66233sIHH3yAn376CWPHjpW7HCIiohaNYYUaTV5eHoKDg+Ho6IgjR44Y3SSLyBR89dVXmDVrFtavX49p06bJXQ4REVGLx0G9qdG4uLhg7969SEtLw8SJE43umk0kt8jISLzyyitYvnw5gwoREZGJ4JEVanSnT5/G0KFD8cwzz+Crr76Suxwi/Pbbbxg6dCgmT56MdevWyV0OERER/R8eWaFG17dvX2zZsgXffPMNPvjgA7nLoRbuypUreOyxxzBs2DCsWbNG7nKIiIjoDjyyQrJZt24dXn75ZXzzzTeYMmWK3OVQC5SZmYkBAwbA3d0dhw8fhkqlkrskIiIiugNvCkmymTlzJlJSUvDSSy/Bw8MDI0aMkLskakE0Gg0ee+wx2NraIioqikGFiIjIBPHICslKCIEpU6Zg586d+O9//4ugoCC5S6IWoKKiAqNHj8aVK1cQExMDb29vuUsiIiKiGjCskOx0Oh1Gjx6NS5cu4eTJk9xxpAZlMBgwadIk/Prrrzh27BgCAwPlLomIiIhqwbBCJkGj0eCRRx5BeXk5Tpw4gVatWsldEjVT8+fPxxdffIE9e/YgNDRU7nKIiIjoL3A0MDIJDg4O2LNnD7RaLcaOHYuysjK5S6Jm6N///jc+/fRTbNy4kUGFiIioCWBYIZPh6emJqKgoXLp0CRMnTkRlZaXcJVEzsnnzZrzxxhtYtWoVJkyYIHc5REREVAcMK2RSOnfujF27dmH//v2YO3eu3OVQM3H48GFMnToVixcvxj/+8Q+5yyEiIqI64jUrZJK2bduGp59+Gh999BEWLFggdznUhJ05cwaDBw/GE088gY0bN0KhUMhdEhEREdUR77NCJumpp55Ceno6Fi5cCBcXFzz33HNyl0RNUHJyMkaPHo2+ffvi22+/ZVAhIiJqYnhkhUxa1chNUVFRGDZsmNzlUBOSn5+P4OBg2Nvb4+jRo7Czs5O7JCIiIqonhhUyaXfeE+P48ePo3r273CVRE6DVahEaGoqcnBzExMTAzc1N7pKIiIjoPjCskMmrqKjAY489hoSEBJw8eRJt27aVuyQyYTqdDmFhYfj9998RHR2Njh07yl0SERER3SeGFWoSioqKMHDgQBgMBpw4cQKOjo5yl0QmSAiBadOmISIiAocOHUL//v3lLomIiIj+Bg5dTE2CWq1GVFQUNBoNxo0bh/LycrlLIhP0xhtvYOPGjdi+fTuDiomys7ODQqGocVKpVAgMDMSqVauq3Weppn5mZmZwcnJCYGAgZs+ejTNnztR5nXXtS0RE8mJYoSajTZs2iIqKwrlz5zBlyhQYDAa5SyITsnbtWnz44YdYt24dRo4cKXc5JqWkpAQdOnTA448/LncpKCkpQVxcHAAgLCwMQggIIaDRaLBv3z4AwGuvvYbXX3/9nv10Oh0SEhLw7rvvIiEhAb1798bUqVOh1WofWF8iIpIXwwo1KV27dsWOHTuwc+dOvPHGG3KXQyZi9+7dmDNnDt5//31MnTpV7nJMjhACBoPBpAO+vb09Bg0ahLVr1wIA1q1bB51O95d9zM3N4ebmhrCwMBw+fBiLFi3Cd999h6effhr3OsP57/QlIqLGw7BCTc6QIUPw7bffYuXKlfj000/lLodkduzYMUycOBEzZszAkiVL5C7HJNnb2yMpKQlRUVFyl3JP/v7+AP4c0a2oqKheff/973+jX79+2L17N7Zu3dpofYmIqOEwrFCT9PTTT2PFihWYP38+duzYIXc5JJPLly9j7NixGD58OD7//HO5y6EHIDExEQDg4uICZ2fnevVVKBSYM2cOAOCLL75otL5ERNRwGFaoyXrjjTfwyiuvYPLkyYiOjpa7HGpkN27cwGOPPYZu3bohIiIC5ubm1drcvHkTCxYsQPv27WFlZYU2bdogNDQU3333HUpLS2tsZ2lpCScnJ4waNQpHjhyR2uzatcvoAu3U1FRMnDgRjo6OaN26NR5//HEkJSXdd/sqeXl5mDdvHnx8fGBpaQkXFxeEh4fj3LlzUpuQkBCjx548eTIAIDQ01Gh+YWFhtTrKyspqfY4e1Lbfj5KSEhw/fhyzZs2CSqWSTgerr5CQEADAqVOn7nka2YPsS0REDUQQNWF6vV6Eh4eL1q1bi/j4eLnLoUZSWFgounfvLrp06SJu3bpVY5usrCzh6+sr3N3dRWRkpNBoNCI7O1ssX75cABCrV682aufm5iYiIyNFUVGRSExMFOHh4UKhUIj169cbPW5YWJgAIMLCwkRMTIwoKSkRBw4cEDY2NqJPnz7V6qhP+8zMTOHt7S3c3NzEnj17RHFxsbh06ZJ45JFHhLW1tYiJiZHanjt3Ttja2orAwEBRUlIihBCirKxM9OvXT2zZsqXWOkpLS6s9Rw217bWJi4sTAGqc/P39xfbt2/+yX1hYWK2PXVpaKj1WZmbmA+lLRETyYVihJk+r1YoBAwYIX19fkZWVJXc51MBKS0vFwIEDhZeXl0hLS6u13ZQpUwQAERERUW3ZyJEjpbBS1e7uHfyysjLh6ekpbGxsRHZ2tjS/aoc9MjLSqP348eMFAJGXl2c0vz7tX3jhBQFAbNq0yahtVlaWsLKyEr169TKav23bNgFAhIeHC4PBIF544QXxxhtv1Ph81BRWGnrba1NTcNDpdCI5OVm88847QqFQiPDwcFFRUXHPfnfTarX3HVZq60tERPLhaWDU5NnY2GD37t2wtLTE6NGjUVJSIndJ1EAMBgMmT56MCxcuICoqCu3atau17c6dOwEAo0aNqrZs7969ePXVV43ajR492qiNlZUVhg0bhtLSUvz666/VHqNPnz5Gv7dt2xYAkJmZWWM9dWm/a9cumJmZVRti2N3dHV26dMGZM2eQkZEhzZ8wYQLefPNN7NixAyEhIbh58yaWL19e4/pr0ljbXhcWFhbw9fXFsmXL8Mwzz2DHjh33NYBGVlYWAECpVNb7mpe/05eIiBoGwwo1C61bt8bevXtx48YNhIWFoaKiQu6SqAHMnz8fe/bsQWRkJLp3715ru/LychQVFcHa2hr29vb33c7NzQ0AkJ2dXW2ZWq02+t3S0hIAah0e+F7tq2oxGAxQq9XVbmJ49uxZAMAff/xh9DjLly9Hv379EBMTgwkTJsDMrG7/rTfmttfXoEGDAACHDh2qd98TJ04AAB5++GEolcpG60tERA2DYYWaDV9fX+zZswenT5/Giy++yHslNDMrVqzA559/jo0bN2LgwIF/2dbKygpqtRplZWUoLi6+73Y5OTkA/jyy0dCsrKzg6OgICwsL6HQ66WaJd09Dhgwx6nf06FEUFRWhW7dumD17Ns6fP1/n9ZnKtt+t6r1b3xs0GgwGrFmzBgDwyiuvNFpfIiJqOAwr1Kz06tUL27ZtQ0REBJYtWyZ3OfSAbNy4EW+//TZWr16NJ598sk59xo0bBwA13lskKCgI8+fPN2q3Z88eozbl5eU4dOgQbGxsMGLEiL9Tfp2Fh4dDr9fXOLrdhx9+iHbt2kGv10vzUlJSMG3aNGzfvh27d++GjY0NwsLCkJeXV6f1mdK23+n48eMAqp9udi9Lly7F6dOnMW7cOEyYMKHR+hIRUQOS73IZoobz9ddfCwBizZo1cpdCf9OePXuEhYWF+Oc//1mvflUjXXl4eIhffvlFaDQakZ6eLl5++WXh5uYmXZx/94hYGo3GaESsr776yuhxa7pQXQghFi9eLACIuLi4+26fk5Mj2rdvL/z8/ERUVJQoLCwUN2/eFGvXrhUqlcposIDi4mLRvXt38fPPP0vzjh49KpRKpRg0aFC1i9PrMhrYg9722tR2gX1KSop0gb2Xl1e1i9zv7ldZWSlycnLErl27xNChQwUA8eKLLwqtVnvPddanLxERyYdhhZqtt99+W5ibm4tdu3bJXQrdp99//13Y2dmJyZMnC4PBUO/++fn54tVXXxW+vr5CqVQKDw8PMWnSJHH16tW/bKdWq8WIESPEoUOHpDYnT56sNszum2++KYQQ1eaPHj263u2r3Lx5UyxYsED4+fkJpVIpXFxcxPDhw8WBAwekNq+88opR/4sXL4q8vLxqj7t8+XKxc+fOavOfffbZBt32v2Jra1vjkMUKhULY29uLwMBAsWjRItT5IAAAIABJREFUIpGTk3PPfgqFQqjVatGtWzfx8ssvizNnztR5nXXtS0RE8lIIwRP7qXkSQmD69OnYunUrDh48iIcffljukqgekpKSEBwcjF69euHnn3+GhYWF3CURERFRI2NYoWatsrIS4eHhiImJQXR0NDp27Ch3SVQHeXl5CA4OhqOjIw4fPgw7Ozu5SyIiIiIZMKxQs6fVajFs2DDk5eUhJiYGrq6ucpdEf6G4uBiDBw9GUVERoqOjpSF0iYiIqOXhaGDU7KlUKuzevVu62d7t27flLolqodPpMGHCBKSnp2Pv3r0MKkRERC0cwwq1CC4uLti7dy/S0tIwceJEo+FfyTQIITBjxgzExMRg37596NChg9wlERERkcwYVqjFaN++PSIjI3H06FHMnj1b7nLoLosWLcLmzZvx448/omfPnnKXQ0RERCaAYYValL59+2LLli345ptv8P7778tdDv2fL774Av/5z3+wfv16WW5CSERERKaJYYVanDFjxmDNmjX45z//ie+++07uclq8bdu2Ye7cuVi5ciVeeOEFucshIiIiE8IbF1CLNHPmTKSkpOCll16Ch4cHv82XydGjR/H8889j1qxZWLhwodzlEBERkYnh0MXUYgkhMGXKFOzcuRP//e9/ERQUJHdJLcqlS5cwcOBAjBgxAps3b4aZGQ/0EhERkTGGFWrRdDodRo8ejUuXLuHkyZPw9vaWu6QWISMjAwMGDED79u2xb98+WFlZyV0SERERmSCGFWrxNBoNHnnkEZSXl+PEiRNo1aqV3CU1azdv3sTAgQNhbm6O48ePw9HRUe6SiIiIyETxvAtq8RwcHLBnzx5otVqMHTsWZWVlcpfUbJWWlmLs2LEoLi5GVFQUgwoRERH9JYYVIgCenp6IiorCpUuXMHHiRFRWVspdUrNTWVmJyZMnIz4+Hvv370fbtm3lLomIiIhMHMMK0f/p3Lkzdu3ahf3792Pu3Lm1tquoqGjEqpqPV199FXv37sXPP/+MgIAAucshIiKiJoBhhegOgwYNwvfff49169Zh1apV1ZZv2bIFEyZMkKEy01daWoply5bBYDBUW/avf/0LX375JTZu3Ijg4GAZqiMiIqKmiPdZIbrLU089hYyMDCxcuBAuLi547rnnAAAfffQRFi9eDABISkpC+/bt5SzT5EREROBf//oX4uPj8cMPP0gjfH399ddYtmwZPvvsM4SHh8tcJRERETUlHA2MqBbz58/HF198gV9++QWRkZH4/PPPIYSAUqnE/Pnz8eGHH8pdokkJCgrC+fPnYW5ujgEDBiAyMhLHjx/H2LFj8eabb2LZsmVyl0hERERNDMMKUS0MBgMmTJiAS5cu4dq1a0anNzk6OiIrKwvW1tYyVmg6Tp8+jX79+km/K5VK+Pr6QqvVYuTIkVi/fr2M1REREVFTxWtWiGpRVFSEzMxMJCcnV7sOQ6PRYMeOHTJVZnrWrFkDpVIp/a7T6ZCSkgKdTodXX31VxsqIiIioKeORFaIapKamIjQ0FGlpadDr9dWWm5mZoU+fPjh16pQM1ZmWgoICeHh4oLy8vNoyCwsL2NjYICoqCiEhITJUR0RERE0Zj6wQ3eXs2bPo27cvrl+/XmNQAf48Rey3337DxYsXG7k60/O///u/td6XRq/X4/bt2wgNDUVkZGQjV0ZERERNHcMK0V0OHz6M4uLie7ZTKpVYt25dI1RkugwGAz777LNaQ11Vm4qKCoSHh+P3339vxOqIiIioqWNYIbrLwoULkZSUhBdeeAFmZmZG12LcSafT4ZtvvqlTsGmu9u3bh+vXr9e63MzMDAqFAj179sSRI0fQp0+fRqyOiIiImjqGFaIaeHp6Yv369bh48SKGDh0KADA3N6/WrqKiAlu2bGns8kzG559/DguLmm/XZG5uDm9vb0RERCA2NpbXrBAREVG98QJ7ojo4ePAg5s6di6tXr0IIgaq3jUKhQEBAAC5fvixzhY0vLS0Nfn5+1UZKUyqVUKlUWLp0KebPnw9LS0uZKiQiIqKmjkdWiOogNDQUFy9exJdffgknJyfpaIIQAleuXMFvv/0mc4WN78svvzQ62qRUKmFlZYUFCxYgLS0NixcvZlAhIiKiv4VHVojqSaPR4IMPPsCqVasghIBer8fkyZPxww8/yF1aoykvL4e7uzsKCwthYWEBg8GA559/HitWrICXl5fc5REREVEzwbBCdJ/S0tKwZMkSREREwNLSElevXoVCocDt27elqaKiAoWFhaioqEBJSQm0Wi3Ky8tRVFSEiooKFBcXo7S0FGVlZQBg9HMVvV5f40X8BQUF0s82NjawtrY2Wm5hYQF7e/tq/ZycnIx+ViqVsLOzg0qlgpWVFRwdHaFUKmFvby89rlqthlKphIODAxwcHLBnzx5MmTIFwJ9HnVatWoVu3brd93NJREREVBOGFaK73Lp1C9nZ2cjNzcXNmzdRWFiIgoICo+nOeXl5eSgsLMRfvZXuDgQODg5QKpVQq9WwsrKCSqUyancnhUIBR0fHao9pb28vnY5WUlICnU5ntLysrAylpaVG8+4MPkIIKUjdHa50Ot09RzkzMzODs7MzPDw84OTkBEdHRzg5ORlNVfOcnZ3h6ekJV1dXnhpGREREdcawQi1CeXk5srOzkZmZidzcXGRmZiInJwfZ2dnIyspCbm4ubty4gdzc3Gp3YndwcKhxB/zu6ebNm+jdu7cUSuzs7KBUKo2OZDQ1VUd6NBoNdDodioqKkJKSgmPHjiEwMLBakKsp2N0dopydneHm5gZ3d3d4eHjA1dUVXl5ecHV1hYeHB9zd3eHm5gZnZ2eZtpqIiIhMBcMKNQulpaVITU1FWloa0tLSjH5OSUlBdna20ZEPJycneHh4wM3NTfrG39PTs9pOdOvWrWscspjqrqSkBHl5edVCYVZWFrKzs5GTkyOFyIqKCqmfSqWCj48PfHx84O3tLf1b9bO7u7uMW0VERESNgWGFmoyCggIkJiYiPj4eiYmJSElJkYJJTk6O1E6tVks7tHfu7Hp6ekqBxMrKSsYtodrk5+cjJycHWVlZuH79uvT6Vk03btxAZWUlAMDa2toowHTo0AGdOnVCp06d4Ovry5BJRETUDDCskEkRQiAtLU0KJQkJCdLPVYHExsYG/v7+8PX1rTGU1HR9BzUPer0eGRkZ0pGzqhCTlpaGq1ev4saNGwAAKysrdOzYEf7+/vD390fnzp2ln+++JoiIiIhMF8MKyaaoqAjnzp1DXFwc4uLicOHCBSQmJkoXhbu6uhrtZAYEBMDf3x/e3t4wM+Mtgqg6jUaDxMREJCQkSEfgEhIScO3aNekUs3bt2iEgIABBQUHS9NBDD0GhUMhcPREREd2NYYUaRU5OjhRK4uLicPbsWSQnJ0MIARcXFwQFBaFHjx5G34I35QvTybTo9XqkpKRIR+suXbqEuLg4JCQkQK/Xw8HBAYGBgVJ46dmzJwICAqBUKuUunYiIqEVjWKEHrqysDLGxsThx4gSio6Nx9uxZZGZmAvjzW+07dwiDgoLQpk0bmSumlqq0tBQXL16UAnRcXBwuXryIsrIyWFlZoVu3bujXrx+Cg4MxcOBA/q0SERE1MoYV+ttu3bqFmJgYnDhxAidOnEBsbCzKy8vh6emJ4OBg9O7dWwomrVu3lrtcor+k1+sRHx8vHQU8efIkzp49C51Oh3bt2mHgwIEIDg5GSEgIunTpwlMSiYiIGhDDCtVbfn4+9u/fj2PHjuHEiRO4cuUKACAgIAAhISHSjpyfn5/MlRI9GFqtFqdPn8bx48cRHR2NkydPQqPRwNHREcHBwQgODkZoaCh69erF8EJERPQAMazQPVVWVuL06dPYu3cvfv31V8TGxsLc3Bx9+vSRTo8ZMGAAj5pQi1FZWYmLFy/i+PHjiImJwbFjx5CZmQkXFxcMHz4cI0eOxIgRI+Di4iJ3qURERE0awwrVKC8vD0ePHkVkZCT27NmDW7duwd3dHY8++ijGjBmD4cOHQ61Wy10mkclITk7GwYMHERkZiQMHDqC8vBydO3fGmDFjEBoaikceeYQX7BMREdUTwwpJrl+/joiICERERODs2bOwsrLCoEGDMHLkSIwcORIBAQFyl0jUJJSUlODw4cPYt28f9u3bh5SUFDg5OSEsLAyTJk3CsGHDYGFhIXeZREREJo9hpYXLzs7GTz/9hK1btyImJgZOTk4IDw/HuHHjMHjwYKhUKrlLJGryEhMT8csvv2Dbtm04ffo0XFxcMH78eEyaNAkhISG8zoWIiKgWDCstUEFBAbZv346tW7fi6NGjUKlU0je+jz76KCwtLeUukajZSk5ORkREBLZu3YoLFy7Ay8sLTz31FCZNmoS+ffvKXR4REZFJYVhpQc6dO4cvv/wSmzZtQmVlJUJDQzFhwgQ8+eSTsLW1lbs8ohbnypUr2LZtGyIiIpCQkIBOnTph1qxZmD59Ot+TREREAHjuQTOn0+kQERGBgQMHIigoCNHR0fj444+Rm5uLyMhIPP/889wpqkFJSQkUCoXRdPLkyXv2e/311436rFixohGqvT92dnbVttHMzAxOTk4IDAzE7NmzcebMmTr3rZpUKhUCAwOxatUqVFZWNvJWNS2dO3fGsmXLEB8fj99++w19+/bF4sWL0a5dO7z++utISUmRu0QiIiJZMaw0Uzk5OXj33Xfh4+ODZ599Fq6urjh8+DAuXbqEWbNmwd7eXu4STZqdnR2EEIiLi5PmLV++/C/73Lx5E2vXrgUAPPvssxBC4J///GeD1FdSUoIOHTrg8ccf/1uPUbV9YWFhEEJAp9MhISEB7777LhISEtC7d29MnToVWq32nn2FENBoNNi3bx8A4LXXXsPrr79+3/W1NH379sX333+P9PR0LFy4EBEREXjooYfwxBNPYP/+/eBBcCIiaokYVpqZvLw8LFmyBH5+fli9ejXGjx+PpKQkbN++HUOGDJG7vCbJxsYG3t7e2Lt3L2JjY2ttt3r1arRt27ZRahJCwGAwwGAwPNDHNTc3h5ubG8LCwnD48GEsWrQI3333HZ5++uk67Szb29tj0KBBUmhbt24ddDrdA62xuXNxccHSpUuRmpqKXbt2obS0FCNHjkSPHj3w448/MrQQEVGLwrDSTBQWFuL111+Ht7c3NmzYgA8++ABZWVn45JNP4O3tLXd5TZqZmRmWLFkCALWe1lVYWIgvv/wSixcvbpSa7O3tkZSUhKioqAZdz7///W/069cPu3fvxtatW+vcz9/fH8Cfd34vKipqqPKaNTMzM4wZMwYHDhzAmTNn4OPjg4kTJ6Jfv344evSo3OURERE1CoaVJq6yshJr165Fx44d8d133+GDDz7AtWvXMG/ePFhbW8tdXrMxdepUeHl5Yffu3bhw4UK15Z9++ikee+wxtG/fXobqGo5CocCcOXMAAF988UWd+yUmJgL48yiBs7Nzg9TWkgQFBeHnn39GbGwsnJ2dMWTIEISHhyMpKUnu0oiIiBoUw0oTdvHiRTz88MOYN28exo0bh/j4ePzjH/+AjY2N3KU1O1ZWVnj99dchhMB7771ntKykpASfffYZ3njjjVr76/V6RERE4NFHH4W7uztsbGzQrVs3fPLJJ0ancu3atcvoYvXExEQ89dRTaN26tTTv66+/NmpTVlZW7/XUR0hICADg1KlT9zylq6SkBMePH8esWbOgUqmk08HowejZsyeioqJw4MABXLt2DQEBAViyZAkqKirkLo2IiKhBMKw0QXq9Hm+99RZ69eoFS0tLnD9/HuvWreM32A3spZdegpubG3766SfEx8dL89esWYOhQ4ciICCg1r779u3DpEmTMHToUMTHxyM9PR0vvfQSFixYYHTq2NixYyGEQFhYGABg5syZmD17NtLT03Hq1CmYm5tXa3M/66kPd3d3AH/+3eXn51db/vPPP0vBqeqalfLycmzYsAHh4eH3tU76a6GhoTh79ixWrFiBTz/9FP3798fFixflLouIiOiBY1hpYjIzMzFkyBCsWrUK//nPf3Ds2LG/3EmmB8fGxgYLFiyAwWDA+++/D+DPazJWr16NN9988579Bw8ejKVLl8LJyQnOzs6YO3cunnnmGXzyySfQaDQ19lm8eDEGDx4MlUqFfv36Qa/X3zOU3s96/sq9Lui+czQwnU6H5ORkTJo0CePHj8eTTz7JC+wbiIWFBRYtWoRz585Jfx/ffvut3GURERE9UAwrTcipU6cQFBSE/Px8/Pbbb5g7dy7MzPgSNqbZs2ejdevW2LJlC65du4Z169ahf//+6N69+1/2e/zxx3HkyJFq8wMDA6HT6XD58uUa+9X3jub3u56/kpWVBQBQKpX3DEoWFhbw9fXFsmXL8Mwzz2DHjh349NNP671OqruOHTvi6NGjmDt3LqZNm4aZM2dCr9fLXRYREdEDwT3dJmLPnj0YNmwY+vXrh9OnT6Nr165yl9Qi2dnZ4dVXX0VlZSXeeecdfPzxx3W6l0pRURHefvttdOvWDU5OTtJpU1X3Ibn7PiZV6nvDzvtdz185ceIEAODhhx+GUqmsc79BgwYBAA4dOlTvdVL9WFhY4MMPP8SOHTuwceNGPPnkkygtLZW7LCIior+NYaUJ2Lt3L8aNG4dJkyZhx44dvKGjzObOnQu1Wo3NmzcjMDAQvXv3vmefMWPGYPny5ZgxYwauXr0Kg8EAIQRWr14N4N6nWtXVg16PwWDAmjVrAACvvPJKvfpWret+AhLdn7Fjx+LAgQM4ceIExo0bx1PwiIioyWNYMXGxsbF46qmn8Oyzz+Lrr7+GhYWF3CW1eGq1GgsWLIBara7TUZXKykpER0fD3d0d8+bNg4uLCxQKBQA80G+/G2I9S5cuxenTpzFu3DhMmDChXn2PHz8OAOjTp899rZvuz4ABA7B//37ExMRg2rRpvIkkERE1aQwrJkyj0eCpp57CgAED8NVXX0k7niS/t99+G4WFhRgwYMA925qbm2Pw4MHIzs7GRx99hPz8fJSWluLIkSMPdGjfB7Eeg8GA3Nxc/Pzzzxg2bBhWrlyJF198EZs2barT359er0dqaiqWLVuGzZs3w8vLCwsWLPi7m0b11KtXL2zfvh1btmzBunXr5C6HiIjo/gkyWdOmTROurq4iJydH7lJaJFtbWwFAmkaMGPGX7e9sWzV99tlnQggh8vLyxMyZM0Xbtm2FUqkUbm5uYsqUKWLJkiVS2169eomTJ0/W+Dh32rlzZ7Xlzz77bL3WU9P2ARAKhUKo1WrRrVs38fLLL4szZ87U6bm5s7+9vb0IDAwUixYt4t+uzN58801ha2srrl27JncpRERE90UhBM8RMEXx8fHo2rUrNm3ahEmTJsldDhE1QTqdDt27d0efPn3www8/yF0OERFRvTGsmKgpU6YgNjYWFy5c4PDERHTfNm3ahClTpuCPP/6Aj4+P3OUQERHVC/eCTZBer8fPP/+Ml156iUGFiP6WiRMnwt7eHrt27ZK7FCIionrjnrAJOn36NAoLCzF69Gi5SyGiJs7CwgIjRozAgQMH5C6FiIio3hhWTFBaWhosLS3h5+cndylE1Ax06tQJqampcpdBRERUbwwrJqigoABqtZpDFVOL9d5770GlUuHXX3+Vu5RmoVWrVrh165bcZRAREdUbw4oJat26NQoKClBZWSl3KQ0iLS0NTzzxBDQaDQDAzs4OCoWixkmlUiEwMBCrVq1q0s/H1q1bpW2ytrZutut8EKKiovDxxx/j119/xYgRIxp8fUuWLEFERESDr0dO+fn5cHFxkbsMIiKiemNYMUG+vr7Q6/W4evWq3KU8cOfOnUPv3r0xfPhwODg4AABKSkoQFxcHAAgLC4MQAkIIaDQa7Nu3DwDw2muv4fXXX5et7r9r0qRJEEJg2LBhzXqdf9cff/yBuXPnYv/+/Rg4cGCjrHPGjBlYunQp3nrrrUZZnxyuXLkCX19fucsgIiKqN4YVE9SrVy84Oztjz549cpfyQGk0GowZMwZPPvkk5syZc8/29vb2GDRokHT39XXr1kGn0zV0mSSjDh06ICkpCX369Gm0dbZv3x47d+7Ee++9h23btjXaehtLeXk59u/f3yhHqYiIiB40hhUTZG5ujieffBJr166FXq+Xu5wHZuXKlcjOzsbbb79dr37+/v4AAK1Wi6KiooYojVq4wMBAjB8/Hq+99lqzes8BwIYNG1BWVoaxY8fKXQoREVG9MayYqEWLFuH69ev4/vvv5S7lgRBC4Ouvv0a/fv3g6elZr76JiYkAABcXFzg7OzdEeUQYN24cMjIymtURzdLSUrz//vuYOnVqvd93REREpoBhxUT5+fnhlVdewcKFC5Geni53OX/b+fPnkZOTg8DAwDr3KSkpwfHjxzFr1iyoVCrpdLAqer0eERERePTRR+Hu7g4bGxt069YNn3zyCQwGg1Hb8vJyvP322+jUqRNUKhVatWqFMWPGYPfu3dUu3M/Ly8O8efPg4+MDS0tLuLi4IDw8HOfOnatz7QkJCRg7dizUajVsbW0xcOBAnDhxotb2cqzz5s2bWLBgAdq3bw9LS0s4OTlh1KhROHLkiNRm165dRgMepKamYuLEiXB0dETr1q3x+OOPIykp6b7b38/217VtfV5zAOjRowcANKsRyJYuXYqCgoJmfT0OERE1c4JMllarFQEBASI4OFhotVq5y/lbNmzYIACI999/v8blcXFxAkCNk7+/v9i+fXu1PpGRkdJj3rp1S+Tl5YlPP/1UmJmZiYULFxq1nT59ulCr1WL//v1Cq9WK7OxssXDhQgFAHDlyRGqXmZkpvL29hZubm9izZ48oLi4Wly5dEo888oiwtrYWMTEx99zWP/74Qzg6OgovLy+xf/9+UVxcLC5cuCCGDx8ufHx8hJWVlVF7OdaZlZUlfH19hZubm4iMjBRFRUUiMTFRhIeHC4VCIdavX2/UPiwsTAAQYWFhIiYmRpSUlIgDBw4IGxsb0adPn2r11Kd9fba/Pm3r+ppXKSoqEgDEwIED7/l8NwXbt28XCoVCbNy4Ue5SiIiI7hvDiom7fPmyaNWqlRg7dqzQ6/Vyl3PfVq5cKQCINWvW1Li8KqyEhYVJ83Q6nUhOThbvvPOOUCgUIjw8XFRUVEjLIyMjxeDBg6s91uTJk4VSqRRFRUXSPF9fXzFgwIBqbTt27Gi04/rCCy8IAGLTpk1G7bKysoSVlZXo1avXPbd1woQJAoD46aefjObfuHFDWFlZVQsOcqxzypQpAoDYsmWL0fyysjLh6ekpbGxsRHZ2tjS/KnxERkYatR8/frwAIPLy8ozm16d9fba/Pm3r+prfSaFQiIceeqjGZU3J0aNHhbW1tZgzZ47cpRAREf0tDCtNwPHjx4WNjY0YO3asKC0tlbuc+/Luu+8KAOKrr76qcXlNYeVOzz77rAAgPv7443uu66OPPhIAjL5lf/nllwUAMWPGDHHy5Mlag59arRZmZmZGQadKz549BQCRnp7+l+u3t7cXAERxcXG1Zd26dasWHORaJwCh0WiqtX/uuecEAPH9999L86rCx50BRggh5s+fLwCI8+fPG82vT/v6bH992tb1Nb+TUqkUXl5e92xnyvbu3StsbW3FU089JSorK+Uuh4iI6G/hNStNQEhICPbv34///ve/GDFiBPLy8uQuqd6qbkp4v0MPDxo0CABw6NAhaV5RURHefvttdOvWDU5OTtJ1ElX3Y9FqtVLbNWvW4IcffkBycjKGDRsGBwcHjBw5Ejt37pTalJeXo6ioCAaDAWq1utoNKs+ePQvgz3uB1Ka8vBzFxcWwtraGnZ1dteWurq7V2su1Tmtra9jb21dr7+bmBgDIzs6utkytVhv9bmlpCQDVrhGqa/v6bH99n6u6vOZ30+v1sLGxqXW5qfvmm2/wxBNPYPz48di0aRPMzPhfPBERNW38JGsiQkJCcOzYMVy/fh09e/ZEdHS03CXVi4eHBwDc99DDQggAxgFkzJgxWL58OWbMmIGrV6/CYDBACIHVq1cb9QEAhUKB5557DgcPHkRhYSF27doFIQTCw8OxatUqAICVlRUcHR1hYWEBnU4n3Zzy7mnIkCG11mllZQV7e3uUlZWhpKSk2vJbt25Vay/HOtVqNcrKylBcXFytfU5ODgDA3d291nU+KPXZ/vo+V3V5ze+k0WgghJD+VpuS0tJSTJ8+HdOnT8fChQvx7bffwsLCQu6yiIiI/jaGlSaka9euOHPmDHr06IEhQ4Zg2bJlqKiokLusOunatSsAICMj4776Hz9+HACkmwVWVlYiOjoa7u7umDdvHlxcXKBQKAD8ueN2N0dHRyQkJAAAlEolHn30UWnkqjuHqg0PD4der68xDH744Ydo167dPe/DMWrUKADAvn37jObn5+dLwzDfSY51jhs3DgCqDdNbXl6OQ4cOwcbGptFuIlif7a9P27q+5lVu3LgB4P//rTYVsbGx6Nu3L3bs2IGdO3fi/fffl94LRERETV5jnGtGD5bBYBD/8z//I2xtbUXXrl3FqVOn5C7pngwGg3B1dRXBwcE1Lq/tAvuUlBTpAnsvLy+RmZkpLR86dKgAIFauXCny8vKEVqsVhw8fFu3atRMAxIEDB6S2arVaPPLII+L8+fOirKxM5OTkiGXLlgkAYsWKFVK7nJwc0b59e+Hn5yeioqJEYWGhuHnzpli7dq1QqVQiIiLintt67do10apVK6ORuS5fvixGjBghXF1dq10/Isc67x4NTKPRGI0Gdve1RVXXoNx9zdTixYsFABEXF3ff7euz/fVpW9fXvMrmzZsFALFz5857Pt+m4Pbt22Lx4sXCwsJCDB06VKSkpMhdEhER0QPHsNKEJSUliWHDhgmFQiGef/55kZGRIXdJf+mNN94QFhYW4saNG0bzbW1taxyyWKFQCHt7exEYGCgWLVokcnJyjPrl5eW0dr1YAAAJGklEQVSJmTNnirZt2wqlUinc3NzElClTxJIlS6THqBod6ty5c2LmzJkiICBAqFQq0apVK9G/f3+xfv16YTAYjB735s2bYsGCBcLPz08olUrh4uIihg8fbhR+7iUxMVGMHTtWODg4SMP1/vLLL2LYsGFSbdOmTZN1nfn5+eLVV18Vvr6+QqlUCrVaLUaMGCEOHToktTl58mS11+XNN98UQohq80ePHl3v9vez/XVtW5/XXIg/R1Tz8vIyGnHOFBkMBrFx40bRtm1b4eDgINauXVvj9hARETUHCiHuOLGfmqQff/wRixYtQl5eHubPn48FCxbAyclJ7rKqKSoqQpcuXfD4449Xu8EjkZzOnz+PoKAgbN68GZMmTZK7nFrt378fb731Fs6cOYOpU6dixYoV0oAIREREzRGvWWkGJkyYgPj4eLz11lv48ssv4evri3feeafahdVyU6vViIyMxE8//YQ1a9bIXQ4RACA5ORnh4eFYunSpyQaVAwcOICQkBCNGjECrVq1w5swZrF+/nkGFiIiaPYaVZsLa2hqLFy9Gamoq/vWvf2HdunXw9PTE888/j/Pnz8tdniQoKAixsbHYu3cvNBqN3OUQYd26dXjvvffw3nvvyV2KkbKyMvzwww8IDAzE8OHDAQBHjx7F3r17ERgYKHN1REREjYOngTVTxcXF2LBhAz7//HPEx8dj0KBBmDNnDsaNG8chTYlMWFJSEr744gt88803KCsrw9NPP405c+agZ8+ecpdGRETU6BhWmjkhBA4fPozPP/8ckZGRcHd3x6xZs/Diiy/C09NT7vKICH8Oxf3rr79izZo12LdvH9q2bYuXX34Z06dPR+vWreUuj4iISDYMKy1IZmYmvvrqK6xZswa3bt3Cww8/jAkTJmDSpEk8952okRkMBsTExODHH3/Etm3bkJ2djeDgYPzjH//gEVAiIqL/w7DSApWXl2P//v348ccfsWvXLmi1WvTv3x8TJkzAs88+C2dnZ7lLJGq2Ll++jB9//BEbNmxAcnIyOnfujAkTJuCZZ55Bx44d5S6PiIjIpDCstHC3b99GZGQktm7dKt39fOTIkRg3bhxGjBgBd3d3mSskatr0ej1OnTqFPXv2YNu2bUhOTkbHjh0xceJETJo0CZ07d5a7RCIiIpPFsEKSwsJC7Nq1CxEREThy5AgqKioQFBSEkSNHYtSoUejfvz9PTSGqg8zMTOzbtw/79u3DgQMHUFhYCD8/Pzz55JOYNGkSL5YnIiKqI4YVqlFpaSmio6Nx8OBB7N69G/Hx8bC1tcWQIUMwZswYjBo1Cm3btpW7TCKTUFlZiXPnziEyMhK//PILzp49CysrK4SEhCA0NBShoaHo1auX3GUSERE1OQwrVCfJyck4ePAgDh48iH379qG4uBh+fn4IDg5GSEgIgoOD0blzZygUCrlLJWpwt2/fRlxcHKKjo3HixAlER0ejoKAAfn5+UjgZOXIk7O3t5S6ViIioSWNYoXorLS3FsWPHcOzYMRw/fhyxsbEoLS2Fm5sbgoODMXDgQAwYMAA9e/bkaWPULGRlZRkFk3PnzkGv18PX11cK66GhoWjfvr3cpRIRETUrDCv0t1VUVCA2NlbamYuJiUF+fj5sbW3Rt29f9OnTB0FBQQgKCkKHDh1gZmYmd8lEtSosLERcXJw0nTx5EklJSTA3N0dgYKAUTkJCQnivIiIiogbGsEIPnBACCQkJiI6ORnR0NM6ePYv4+HjodDrY2dkhMDBQCi89e/ZEly5doFQq5S6bWqCsrCyjYBIXF4fk5GQAgJubG4KCgtCvXz8EBwejf//+PK2LiIiokTGsUKMoLy/HxYsXERcXh7NnzyIuLg4XL16EVquFpaUlunbtih49eqBTp07S5Ovry9PI6IG4desWEhISEB8fj6tXr0p/i9nZ2QAAHx8fowAdFBTEoyZEREQmgGGFZFNZWYmEhATpG+0LFy4gMTER6enpAABLS0s89NBD6NSpE/z9/dGpUycEBASgY8eOUKvVMldPpqayshKpqalITExEfHw8EhMTkZCQgISEBOTl5QEAVCoV/P390blzZymcBAUFwcnJSebqiYiIqCYMK2RySkpKpB3Nqp3OxMREXL16FeXl5QAADw8PtG/fHj4+PvDx8YG3t7f0b7t27WBlZSXzVlBDyM3NRVpaGlJTU6V/q6Zr164Z/X0EBARIIbcq8LZr144j1hERETUhDCvUZNz5zXlCQgJSUlKQmpqKlJQUpKWloaSkBACgUCjg4eEBX19foyDj6ekJDw8PuLu7w9XVlaeYmRiNRoPMzEzk5uYiMzMT6enpRmEkNTUVWq0WAGBmZgZPT0/4+PhIr/OdR+F45I2IiKh5YFihZiM/P9/o2/a0tDQp0KSlpaG4uFhqq1Ao4OrqCldXVynAuLm5wdPTEy4uLvDy8oKrqytatWoFJycnHqm5T0VFRSgoKEBOTg5yc3ORlZWF7Oxs5Obm4saNG0bzSktLpX7m5uZSGLl78vb2Rtu2bWFpaSnjlhEREVFjYFihFqOkpET65r6mnebs7GxkZWUhNzcXer3eqK9KpYKTk1OdJltbW9jb28Pa2ho2Njawt7eHUqmEo6OjTFtef+Xl5dBqtSgpKYFOp0NBQQF0Oh1KSkpQWFiIgoKCe06FhYUwGAxGj6tWq+Hh4QFXV1d4enrCzc2txpDo6uoKc3NzmbaeiIiITAXDClENcnNzkZubi1u3btW6I17T/KprJmpjaWkJW1tb2NrawtLSEo6OjlAqlUZD4jo4OFTbUbe3t6922tqd84qLi6sFrKqgUdu8qvCh1WpRXl6OoqIi6HQ6aDSaez4/jo6OUji78+faJhcXF7i5ucHGxuaej01ERERUhWGF6AHSarXQarXQaDQoKytDaWkpiouLodPpUFhYWOMRi4qKCty+fRvAn/eoKSwsrPa4BQUF1eYVFhai6u1rY2MDa2tro+U1zas62gP8eaqVg4ODNM/BwQFKpRJqtRpWVlZQqVSws7OTQlVV0HJ0dORF6kRERNQoGFaIiIiIiMgkmcldABERERERUU0YVoiIiIiIyCQxrBARERERkUmyAPCV3EUQERERERHd7f8B9jAjtRwQXUcAAAAASUVORK5CYII=;" vertex="1" parent="1">
          <mxGeometry x="-230" y="-120" width="470.47" height="210" as="geometry" />
        </mxCell>
        <mxCell id="IZ3la_lI0R4nUm2AgaYm-8" value="" style="rounded=0;orthogonalLoop=1;jettySize=auto;html=1;entryX=0.146;entryY=-0.032;entryDx=0;entryDy=0;entryPerimeter=0;fillColor=#008a00;strokeColor=#005700;" edge="1" parent="1" source="IZ3la_lI0R4nUm2AgaYm-5" target="IZ3la_lI0R4nUm2AgaYm-7">
          <mxGeometry relative="1" as="geometry" />
        </mxCell>
        <mxCell id="IZ3la_lI0R4nUm2AgaYm-15" style="edgeStyle=orthogonalEdgeStyle;rounded=0;orthogonalLoop=1;jettySize=auto;html=1;exitX=0.5;exitY=0;exitDx=0;exitDy=0;fillColor=#e51400;strokeColor=light-dark(#B20000,#FF4B4B);" edge="1" parent="1" source="IZ3la_lI0R4nUm2AgaYm-5" target="IZ3la_lI0R4nUm2AgaYm-16">
          <mxGeometry relative="1" as="geometry">
            <mxPoint x="175" y="230" as="targetPoint" />
          </mxGeometry>
        </mxCell>
        <mxCell id="IZ3la_lI0R4nUm2AgaYm-5" value="&lt;div&gt;PHP + Apache&lt;/div&gt;" style="rounded=1;whiteSpace=wrap;html=1;" vertex="1" parent="1">
          <mxGeometry x="100" y="270" width="150" height="40" as="geometry" />
        </mxCell>
        <mxCell id="IZ3la_lI0R4nUm2AgaYm-7" value="MariaDB" style="whiteSpace=wrap;html=1;rounded=1;" vertex="1" parent="1">
          <mxGeometry x="140" y="405" width="240" height="55" as="geometry" />
        </mxCell>
        <mxCell id="IZ3la_lI0R4nUm2AgaYm-22" style="edgeStyle=orthogonalEdgeStyle;rounded=0;orthogonalLoop=1;jettySize=auto;html=1;exitX=0.5;exitY=0;exitDx=0;exitDy=0;fillColor=#e51400;strokeColor=light-dark(#B20000,#FF4B4B);" edge="1" parent="1" source="IZ3la_lI0R4nUm2AgaYm-9" target="IZ3la_lI0R4nUm2AgaYm-21">
          <mxGeometry relative="1" as="geometry" />
        </mxCell>
        <mxCell id="AtlXYg7EKPRta079PFT4-3" style="rounded=0;orthogonalLoop=1;jettySize=auto;html=1;exitX=0.25;exitY=1;exitDx=0;exitDy=0;entryX=0.764;entryY=-0.01;entryDx=0;entryDy=0;entryPerimeter=0;" edge="1" parent="1" source="IZ3la_lI0R4nUm2AgaYm-9" target="IZ3la_lI0R4nUm2AgaYm-7">
          <mxGeometry relative="1" as="geometry" />
        </mxCell>
        <mxCell id="IZ3la_lI0R4nUm2AgaYm-9" value="phpMyAdmin" style="rounded=1;whiteSpace=wrap;html=1;" vertex="1" parent="1">
          <mxGeometry x="290" y="270" width="130" height="40" as="geometry" />
        </mxCell>
        <mxCell id="IZ3la_lI0R4nUm2AgaYm-10" value="" style="endArrow=classic;html=1;rounded=0;exitX=0.5;exitY=1;exitDx=0;exitDy=0;entryX=0.905;entryY=0.016;entryDx=0;entryDy=0;entryPerimeter=0;fillColor=#008a00;strokeColor=#005700;" edge="1" parent="1" source="IZ3la_lI0R4nUm2AgaYm-9" target="IZ3la_lI0R4nUm2AgaYm-7">
          <mxGeometry width="50" height="50" relative="1" as="geometry">
            <mxPoint x="350" y="380" as="sourcePoint" />
            <mxPoint x="400" y="330" as="targetPoint" />
          </mxGeometry>
        </mxCell>
        <mxCell id="IZ3la_lI0R4nUm2AgaYm-11" value="&lt;div&gt;zabbix-server&lt;/div&gt;&lt;div&gt;(Récupération des metrics)&lt;/div&gt;" style="rounded=1;whiteSpace=wrap;html=1;" vertex="1" parent="1">
          <mxGeometry x="475" y="402.5" width="180" height="60" as="geometry" />
        </mxCell>
        <mxCell id="IZ3la_lI0R4nUm2AgaYm-14" value="Connexion BDD" style="text;html=1;align=center;verticalAlign=middle;whiteSpace=wrap;rounded=0;" vertex="1" parent="1">
          <mxGeometry x="390.25" y="390" width="82.5" height="30" as="geometry" />
        </mxCell>
        <mxCell id="IZ3la_lI0R4nUm2AgaYm-16" value="&lt;div&gt;:80&lt;/div&gt;&lt;div&gt;:443&lt;/div&gt;" style="text;html=1;align=center;verticalAlign=middle;resizable=0;points=[];autosize=1;strokeColor=none;fillColor=none;" vertex="1" parent="1">
          <mxGeometry x="150" y="190" width="50" height="40" as="geometry" />
        </mxCell>
        <mxCell id="IZ3la_lI0R4nUm2AgaYm-21" value=":8080" style="text;html=1;align=center;verticalAlign=middle;whiteSpace=wrap;rounded=0;" vertex="1" parent="1">
          <mxGeometry x="325" y="195" width="60" height="30" as="geometry" />
        </mxCell>
        <mxCell id="IZ3la_lI0R4nUm2AgaYm-27" value=":9090" style="text;html=1;align=center;verticalAlign=middle;whiteSpace=wrap;rounded=0;" vertex="1" parent="1">
          <mxGeometry x="530" y="195" width="60" height="30" as="geometry" />
        </mxCell>
        <mxCell id="poCTkSd8-IsoJbm_MVMp-3" style="edgeStyle=orthogonalEdgeStyle;rounded=0;orthogonalLoop=1;jettySize=auto;html=1;exitX=0.5;exitY=0;exitDx=0;exitDy=0;fillColor=#e51400;strokeColor=light-dark(#B20000,#FF4B4B);" edge="1" parent="1" source="poCTkSd8-IsoJbm_MVMp-1" target="poCTkSd8-IsoJbm_MVMp-2">
          <mxGeometry relative="1" as="geometry" />
        </mxCell>
        <mxCell id="poCTkSd8-IsoJbm_MVMp-1" value="Doom" style="rounded=1;whiteSpace=wrap;html=1;" vertex="1" parent="1">
          <mxGeometry x="930" y="270" width="120" height="30" as="geometry" />
        </mxCell>
        <mxCell id="poCTkSd8-IsoJbm_MVMp-2" value=":1337" style="text;html=1;align=center;verticalAlign=middle;whiteSpace=wrap;rounded=0;" vertex="1" parent="1">
          <mxGeometry x="960" y="195" width="60" height="30" as="geometry" />
        </mxCell>
        <mxCell id="poCTkSd8-IsoJbm_MVMp-8" value="" style="rounded=1;whiteSpace=wrap;html=1;arcSize=4;" vertex="1" parent="1">
          <mxGeometry x="80" y="670" width="910" height="340" as="geometry" />
        </mxCell>
        <mxCell id="poCTkSd8-IsoJbm_MVMp-11" value="&lt;div&gt;PHP-Apache&lt;/div&gt;" style="rounded=1;whiteSpace=wrap;html=1;" vertex="1" parent="1">
          <mxGeometry x="100" y="680" width="150" height="40" as="geometry" />
        </mxCell>
        <mxCell id="poCTkSd8-IsoJbm_MVMp-12" value="MariaDB" style="whiteSpace=wrap;html=1;rounded=1;" vertex="1" parent="1">
          <mxGeometry x="287.51" y="680" width="105" height="40" as="geometry" />
        </mxCell>
        <mxCell id="poCTkSd8-IsoJbm_MVMp-13" value="zabbix-server" style="rounded=1;whiteSpace=wrap;html=1;" vertex="1" parent="1">
          <mxGeometry x="532.5" y="680" width="82" height="40" as="geometry" />
        </mxCell>
        <mxCell id="poCTkSd8-IsoJbm_MVMp-66" style="edgeStyle=orthogonalEdgeStyle;rounded=0;orthogonalLoop=1;jettySize=auto;html=1;exitX=0.5;exitY=1;exitDx=0;exitDy=0;entryX=0.5;entryY=0;entryDx=0;entryDy=0;endArrow=none;startFill=0;" edge="1" parent="1" source="poCTkSd8-IsoJbm_MVMp-14" target="poCTkSd8-IsoJbm_MVMp-64">
          <mxGeometry relative="1" as="geometry" />
        </mxCell>
        <mxCell id="poCTkSd8-IsoJbm_MVMp-14" value="&lt;div&gt;Portainer&lt;/div&gt;" style="rounded=1;whiteSpace=wrap;html=1;" vertex="1" parent="1">
          <mxGeometry x="729.5" y="680" width="160" height="35" as="geometry" />
        </mxCell>
        <mxCell id="poCTkSd8-IsoJbm_MVMp-15" value="&lt;br&gt;&lt;div&gt;&lt;br&gt;&lt;/div&gt;&lt;div&gt;&lt;br&gt;&lt;/div&gt;&lt;div&gt;&lt;br&gt;&lt;/div&gt;&lt;div&gt;&lt;font style=&quot;font-size: 17px;&quot;&gt;Machine hôte&lt;/font&gt;&lt;/div&gt;" style="whiteSpace=wrap;html=1;rounded=1;" vertex="1" parent="1">
          <mxGeometry x="193.75" y="880" width="746.25" height="90" as="geometry" />
        </mxCell>
        <mxCell id="poCTkSd8-IsoJbm_MVMp-16" value="./Mission1" style="rounded=1;whiteSpace=wrap;html=1;" vertex="1" parent="1">
          <mxGeometry x="205" y="890" width="75" height="40" as="geometry" />
        </mxCell>
        <mxCell id="poCTkSd8-IsoJbm_MVMp-22" style="edgeStyle=orthogonalEdgeStyle;rounded=0;orthogonalLoop=1;jettySize=auto;html=1;exitX=0.5;exitY=0;exitDx=0;exitDy=0;entryX=0.5;entryY=1;entryDx=0;entryDy=0;strokeColor=light-dark(#B20000,#FF4B4B);startArrow=classic;startFill=1;endArrow=none;align=center;verticalAlign=middle;fontFamily=Helvetica;fontSize=11;fontColor=default;labelBackgroundColor=default;" edge="1" parent="1" source="poCTkSd8-IsoJbm_MVMp-63" target="poCTkSd8-IsoJbm_MVMp-21">
          <mxGeometry relative="1" as="geometry">
            <mxPoint x="340" y="890" as="sourcePoint" />
          </mxGeometry>
        </mxCell>
        <mxCell id="poCTkSd8-IsoJbm_MVMp-23" style="edgeStyle=orthogonalEdgeStyle;rounded=0;orthogonalLoop=1;jettySize=auto;html=1;exitX=0.5;exitY=0;exitDx=0;exitDy=0;entryX=0.5;entryY=1;entryDx=0;entryDy=0;endArrow=none;startFill=0;" edge="1" parent="1" source="poCTkSd8-IsoJbm_MVMp-21" target="poCTkSd8-IsoJbm_MVMp-12">
          <mxGeometry relative="1" as="geometry" />
        </mxCell>
        <mxCell id="poCTkSd8-IsoJbm_MVMp-21" value="&lt;pre class=&quot;x:px-4 x:py-2&quot;&gt;&lt;code style=&quot;white-space: pre;&quot; class=&quot;x:font-mono&quot;&gt;&lt;span&gt;/var/lib/mysql&lt;/span&gt;&lt;/code&gt;&lt;/pre&gt;" style="rounded=0;whiteSpace=wrap;html=1;" vertex="1" parent="1">
          <mxGeometry x="280.01" y="780" width="119.99" height="27" as="geometry" />
        </mxCell>
        <mxCell id="poCTkSd8-IsoJbm_MVMp-24" style="edgeStyle=orthogonalEdgeStyle;rounded=0;orthogonalLoop=1;jettySize=auto;html=1;exitX=0.5;exitY=1;exitDx=0;exitDy=0;entryX=0.5;entryY=0;entryDx=0;entryDy=0;strokeColor=light-dark(#000000,#1889FF);" edge="1" parent="1" source="poCTkSd8-IsoJbm_MVMp-59" target="poCTkSd8-IsoJbm_MVMp-16">
          <mxGeometry relative="1" as="geometry" />
        </mxCell>
        <mxCell id="poCTkSd8-IsoJbm_MVMp-40" value="&lt;span style=&quot;color: light-dark(rgb(0, 0, 0), rgb(24, 137, 255));&quot;&gt;bind mount&lt;/span&gt;" style="text;html=1;align=center;verticalAlign=middle;whiteSpace=wrap;rounded=0;" vertex="1" parent="1">
          <mxGeometry x="144.99" y="970" width="60" height="30" as="geometry" />
        </mxCell>
        <mxCell id="poCTkSd8-IsoJbm_MVMp-41" value="&lt;span style=&quot;color: light-dark(rgb(178, 0, 0), rgb(255, 75, 75));&quot;&gt;volume&lt;/span&gt;" style="text;html=1;align=center;verticalAlign=middle;whiteSpace=wrap;rounded=0;" vertex="1" parent="1">
          <mxGeometry x="90" y="970" width="60" height="30" as="geometry" />
        </mxCell>
        <mxCell id="poCTkSd8-IsoJbm_MVMp-51" style="edgeStyle=orthogonalEdgeStyle;rounded=0;orthogonalLoop=1;jettySize=auto;html=1;exitX=0.5;exitY=0;exitDx=0;exitDy=0;startArrow=classic;startFill=1;endArrow=none;strokeColor=light-dark(#B20000,#FF4B4B);" edge="1" parent="1" source="poCTkSd8-IsoJbm_MVMp-44" target="poCTkSd8-IsoJbm_MVMp-50">
          <mxGeometry relative="1" as="geometry" />
        </mxCell>
        <mxCell id="poCTkSd8-IsoJbm_MVMp-44" value="zabbix-db-data" style="ellipse;whiteSpace=wrap;html=1;" vertex="1" parent="1">
          <mxGeometry x="423" y="890" width="105" height="40" as="geometry" />
        </mxCell>
        <mxCell id="poCTkSd8-IsoJbm_MVMp-50" value="/var/lib/mysql" style="rounded=0;whiteSpace=wrap;html=1;" vertex="1" parent="1">
          <mxGeometry x="422" y="780.5" width="106" height="26" as="geometry" />
        </mxCell>
        <mxCell id="poCTkSd8-IsoJbm_MVMp-56" value="portainer-data" style="ellipse;whiteSpace=wrap;html=1;" vertex="1" parent="1">
          <mxGeometry x="757" y="890" width="105" height="40" as="geometry" />
        </mxCell>
        <mxCell id="poCTkSd8-IsoJbm_MVMp-61" value="" style="edgeStyle=orthogonalEdgeStyle;rounded=0;orthogonalLoop=1;jettySize=auto;html=1;exitX=0.5;exitY=1;exitDx=0;exitDy=0;entryX=0.5;entryY=0;entryDx=0;entryDy=0;strokeColor=light-dark(#000000,#FFFFFF);endArrow=none;startFill=0;" edge="1" parent="1" source="poCTkSd8-IsoJbm_MVMp-11" target="poCTkSd8-IsoJbm_MVMp-59">
          <mxGeometry relative="1" as="geometry">
            <mxPoint x="175" y="750" as="sourcePoint" />
            <mxPoint x="243" y="890" as="targetPoint" />
          </mxGeometry>
        </mxCell>
        <mxCell id="poCTkSd8-IsoJbm_MVMp-59" value="/var/www/html" style="rounded=0;whiteSpace=wrap;html=1;" vertex="1" parent="1">
          <mxGeometry x="125.61999999999999" y="780" width="98.75" height="27" as="geometry" />
        </mxCell>
        <mxCell id="poCTkSd8-IsoJbm_MVMp-63" value="mariadb-data" style="ellipse;whiteSpace=wrap;html=1;" vertex="1" parent="1">
          <mxGeometry x="296.25" y="890" width="88.75" height="40" as="geometry" />
        </mxCell>
        <mxCell id="poCTkSd8-IsoJbm_MVMp-65" value="" style="edgeStyle=orthogonalEdgeStyle;rounded=0;orthogonalLoop=1;jettySize=auto;html=1;exitX=0.5;exitY=0;exitDx=0;exitDy=0;entryX=0.503;entryY=0.886;entryDx=0;entryDy=0;startArrow=classic;startFill=1;endArrow=none;entryPerimeter=0;strokeColor=light-dark(#B20000,#FF4B4B);" edge="1" parent="1" source="poCTkSd8-IsoJbm_MVMp-56" target="poCTkSd8-IsoJbm_MVMp-64">
          <mxGeometry relative="1" as="geometry">
            <mxPoint x="850" y="890" as="sourcePoint" />
            <mxPoint x="817" y="675" as="targetPoint" />
          </mxGeometry>
        </mxCell>
        <mxCell id="poCTkSd8-IsoJbm_MVMp-64" value="/data" style="rounded=0;whiteSpace=wrap;html=1;" vertex="1" parent="1">
          <mxGeometry x="769" y="777" width="81" height="26" as="geometry" />
        </mxCell>
        <mxCell id="Bt-2pf_QVy-BkVTz1MUf-2" value="&lt;span style=&quot;color: rgb(24, 128, 56);&quot;&gt;dépend&lt;/span&gt;" style="text;html=1;align=center;verticalAlign=middle;whiteSpace=wrap;rounded=0;" vertex="1" parent="1">
          <mxGeometry x="400" y="345" width="63" height="30" as="geometry" />
        </mxCell>
        <mxCell id="Bt-2pf_QVy-BkVTz1MUf-5" style="edgeStyle=orthogonalEdgeStyle;rounded=0;orthogonalLoop=1;jettySize=auto;html=1;exitX=0.5;exitY=0;exitDx=0;exitDy=0;strokeColor=light-dark(#B20000,#FF4B4B);align=center;verticalAlign=middle;fontFamily=Helvetica;fontSize=11;fontColor=default;labelBackgroundColor=default;endArrow=classic;fillColor=#e51400;" edge="1" parent="1" source="Bt-2pf_QVy-BkVTz1MUf-3" target="Bt-2pf_QVy-BkVTz1MUf-4">
          <mxGeometry relative="1" as="geometry" />
        </mxCell>
        <mxCell id="Bt-2pf_QVy-BkVTz1MUf-3" value="Portainer" style="rounded=1;whiteSpace=wrap;html=1;" vertex="1" parent="1">
          <mxGeometry x="780" y="270" width="120" height="30" as="geometry" />
        </mxCell>
        <mxCell id="Bt-2pf_QVy-BkVTz1MUf-4" value=":9000" style="text;html=1;align=center;verticalAlign=middle;whiteSpace=wrap;rounded=0;" vertex="1" parent="1">
          <mxGeometry x="810" y="195" width="60" height="30" as="geometry" />
        </mxCell>
        <mxCell id="Bt-2pf_QVy-BkVTz1MUf-20" style="edgeStyle=orthogonalEdgeStyle;rounded=0;orthogonalLoop=1;jettySize=auto;html=1;exitX=0.5;exitY=1;exitDx=0;exitDy=0;strokeColor=default;align=center;verticalAlign=middle;fontFamily=Helvetica;fontSize=11;fontColor=default;labelBackgroundColor=default;startFill=0;endArrow=none;" edge="1" parent="1" source="Bt-2pf_QVy-BkVTz1MUf-8" target="poCTkSd8-IsoJbm_MVMp-50">
          <mxGeometry relative="1" as="geometry" />
        </mxCell>
        <mxCell id="Bt-2pf_QVy-BkVTz1MUf-8" value="zabbix-db" style="rounded=1;whiteSpace=wrap;html=1;" vertex="1" parent="1">
          <mxGeometry x="434" y="680" width="82" height="40" as="geometry" />
        </mxCell>
        <mxCell id="Bt-2pf_QVy-BkVTz1MUf-9" value="zabbix-web" style="rounded=1;whiteSpace=wrap;html=1;" vertex="1" parent="1">
          <mxGeometry x="630" y="680" width="82" height="40" as="geometry" />
        </mxCell>
        <mxCell id="Bt-2pf_QVy-BkVTz1MUf-13" value="zabbix-db" style="rounded=1;whiteSpace=wrap;html=1;" vertex="1" parent="1">
          <mxGeometry x="590" y="330" width="160" height="30" as="geometry" />
        </mxCell>
        <mxCell id="Bt-2pf_QVy-BkVTz1MUf-16" style="rounded=0;orthogonalLoop=1;jettySize=auto;html=1;exitX=0.25;exitY=1;exitDx=0;exitDy=0;entryX=0.25;entryY=0;entryDx=0;entryDy=0;strokeColor=#005700;align=center;verticalAlign=middle;fontFamily=Helvetica;fontSize=11;fontColor=default;labelBackgroundColor=default;endArrow=classic;fillColor=#008a00;" edge="1" parent="1" source="Bt-2pf_QVy-BkVTz1MUf-14" target="IZ3la_lI0R4nUm2AgaYm-11">
          <mxGeometry relative="1" as="geometry" />
        </mxCell>
        <mxCell id="Bt-2pf_QVy-BkVTz1MUf-17" style="edgeStyle=orthogonalEdgeStyle;rounded=0;orthogonalLoop=1;jettySize=auto;html=1;exitX=0.5;exitY=0;exitDx=0;exitDy=0;strokeColor=light-dark(#B20000,#FF4B4B);align=center;verticalAlign=middle;fontFamily=Helvetica;fontSize=11;fontColor=default;labelBackgroundColor=default;endArrow=classic;fillColor=#e51400;" edge="1" parent="1" source="Bt-2pf_QVy-BkVTz1MUf-14" target="IZ3la_lI0R4nUm2AgaYm-27">
          <mxGeometry relative="1" as="geometry" />
        </mxCell>
        <mxCell id="Bt-2pf_QVy-BkVTz1MUf-14" value="zabbix-web" style="rounded=1;whiteSpace=wrap;html=1;" vertex="1" parent="1">
          <mxGeometry x="480" y="270" width="160" height="30" as="geometry" />
        </mxCell>
        <mxCell id="Bt-2pf_QVy-BkVTz1MUf-19" style="rounded=0;orthogonalLoop=1;jettySize=auto;html=1;exitX=0.75;exitY=0;exitDx=0;exitDy=0;entryX=0.206;entryY=1.008;entryDx=0;entryDy=0;entryPerimeter=0;strokeColor=#005700;align=center;verticalAlign=middle;fontFamily=Helvetica;fontSize=11;fontColor=default;labelBackgroundColor=default;endArrow=classic;fillColor=#008a00;" edge="1" parent="1" source="IZ3la_lI0R4nUm2AgaYm-11" target="Bt-2pf_QVy-BkVTz1MUf-13">
          <mxGeometry relative="1" as="geometry" />
        </mxCell>
        <mxCell id="AtlXYg7EKPRta079PFT4-4" style="rounded=0;orthogonalLoop=1;jettySize=auto;html=1;exitX=0.75;exitY=1;exitDx=0;exitDy=0;" edge="1" parent="1" source="IZ3la_lI0R4nUm2AgaYm-5">
          <mxGeometry relative="1" as="geometry">
            <mxPoint x="213" y="400" as="targetPoint" />
          </mxGeometry>
        </mxCell>
        <mxCell id="AtlXYg7EKPRta079PFT4-5" style="rounded=0;orthogonalLoop=1;jettySize=auto;html=1;entryX=0.423;entryY=0.99;entryDx=0;entryDy=0;entryPerimeter=0;exitX=0.896;exitY=0.009;exitDx=0;exitDy=0;exitPerimeter=0;" edge="1" parent="1" source="IZ3la_lI0R4nUm2AgaYm-11" target="Bt-2pf_QVy-BkVTz1MUf-13">
          <mxGeometry relative="1" as="geometry">
            <mxPoint x="655" y="403" as="sourcePoint" />
          </mxGeometry>
        </mxCell>
      </root>
    </mxGraphModel>
  </diagram>
</mxfile>
